<?xml version="1.0" standalone="no"?>
<!DOCTYPE svg PUBLIC "-//W3C//DTD SVG 20010904//EN"
 "http://www.w3.org/TR/2001/REC-SVG-20010904/DTD/svg10.dtd">
<svg version="1.0" xmlns="http://www.w3.org/2000/svg"
 width="574.000000pt" height="564.000000pt" viewBox="0 0 574.000000 564.000000"
 preserveAspectRatio="xMidYMid meet">

<g transform="translate(0.000000,564.000000) scale(0.100000,-0.100000)"
fill="#000000" stroke="none">
<path d="M2880 3895 l0 -930 80 -80 80 -79 67 65 c298 291 863 854 863 859 0
4 -67 75 -149 157 l-148 151 -182 -182 -181 -181 0 360 0 360 -215 215 -215
215 0 -930z"/>
<path d="M2860 4780 c0 -5 1 -11 2 -12 1 -2 -4 -13 -11 -26 -9 -17 -9 -27 -2
-36 6 -7 8 -16 4 -19 -3 -4 -1 -7 5 -7 15 0 16 17 2 25 -5 3 -10 11 -10 16 0
6 4 8 8 5 5 -3 9 10 10 29 1 19 -1 35 -3 35 -3 0 -5 -4 -5 -10z"/>
<path d="M2812 4744 l-24 -23 21 -22 c11 -12 23 -20 26 -18 3 3 -4 15 -15 27
-15 16 -17 22 -7 22 17 0 41 26 30 32 -4 3 -19 -6 -31 -18z"/>
<path d="M2755 4691 c-3 -5 -1 -12 5 -16 5 -3 10 1 10 9 0 18 -6 21 -15 7z"/>
<path d="M2785 4679 c-4 -6 -5 -12 -2 -15 2 -3 7 2 10 11 7 17 1 20 -8 4z"/>
<path d="M2803 4651 c1 -18 3 -18 29 -5 15 8 28 17 28 19 0 8 -25 1 -32 -10
-5 -6 -8 -5 -8 3 0 6 -4 12 -9 12 -6 0 -9 -9 -8 -19z"/>
<path d="M2684 4618 c-16 -18 -22 -27 -13 -20 13 10 21 8 42 -9 15 -11 26 -23
24 -27 -1 -4 2 -9 7 -12 5 -3 10 3 12 13 1 9 -1 15 -6 12 -4 -3 -10 5 -13 17
-4 13 -1 26 6 30 8 5 7 8 -5 8 -9 0 -18 -6 -21 -12 -2 -7 -2 -3 0 10 4 29 2
28 -33 -10z"/>
<path d="M2823 4616 c-13 -6 -23 -14 -23 -19 0 -7 17 0 50 23 20 13 1 11 -27
-4z"/>
<path d="M2750 4606 c0 -2 9 -6 20 -9 11 -3 18 -1 14 4 -5 9 -34 13 -34 5z"/>
<path d="M2823 4575 c-3 -9 -3 -18 -1 -21 3 -3 8 4 11 16 6 23 -1 27 -10 5z"/>
<path d="M2640 4565 c0 -15 38 -40 48 -31 3 3 0 6 -6 6 -6 0 -14 9 -17 20 -7
23 -25 27 -25 5z"/>
<path d="M2860 4559 c0 -5 -4 -7 -10 -4 -6 3 -7 -1 -4 -9 9 -22 19 -20 21 4 1
11 0 20 -3 20 -2 0 -4 -5 -4 -11z"/>
<path d="M2617 4553 c-4 -3 -7 -11 -7 -17 0 -6 5 -5 12 2 6 6 9 14 7 17 -3 3
-9 2 -12 -2z"/>
<path d="M2775 4550 c-3 -5 -1 -10 4 -10 6 0 11 5 11 10 0 6 -2 10 -4 10 -3 0
-8 -4 -11 -10z"/>
<path d="M2804 4543 c4 -8 2 -13 -5 -13 -7 0 -4 -7 7 -16 19 -15 19 -16 -1
-10 -19 6 -19 5 -2 -8 9 -7 17 -19 17 -27 0 -11 -2 -11 -11 1 -9 13 -10 12 -5
-2 3 -10 1 -18 -4 -18 -6 0 -10 -5 -10 -11 0 -8 4 -8 14 0 7 6 20 9 29 5 8 -3
18 0 23 7 5 8 2 11 -8 7 -8 -4 -15 -1 -16 5 -1 7 -3 24 -5 39 -1 15 -9 33 -16
40 -11 10 -12 10 -7 1z"/>
<path d="M2713 4526 c0 -8 6 -12 15 -8 10 3 13 1 8 -6 -3 -6 -2 -13 3 -16 11
-7 9 13 -2 32 -11 16 -24 15 -24 -2z"/>
<path d="M2544 4478 c-27 -28 -43 -48 -36 -44 6 4 12 2 12 -3 0 -10 -15 -15
-23 -8 -8 5 -36 -26 -31 -34 3 -5 -2 -9 -10 -9 -8 0 -18 -5 -22 -12 -5 -7 -3
-8 5 -4 14 9 42 -24 34 -38 -4 -5 -11 -2 -18 7 -13 18 -47 17 -53 -3 -3 -9 0
-10 14 -2 14 8 23 7 37 -5 13 -13 20 -14 29 -5 9 9 9 15 0 24 -18 18 -15 38 6
32 14 -5 15 -4 2 5 -14 10 -7 16 13 12 5 -1 6 3 3 8 -7 10 22 24 34 16 5 -3 7
-12 4 -19 -6 -17 23 -29 32 -14 4 6 3 8 -4 4 -6 -3 -13 -2 -17 4 -3 5 -1 10 5
10 7 0 10 6 8 13 -3 6 -10 12 -16 12 -6 0 -17 6 -24 13 -10 10 -8 12 12 10 21
-3 25 1 25 22 0 16 9 29 24 36 12 7 19 14 14 17 -5 4 -32 -17 -59 -45z m16
-14 c0 -8 -5 -12 -10 -9 -6 4 -8 11 -5 16 9 14 15 11 15 -7z"/>
<path d="M2636 4523 c5 -5 12 -12 16 -18 4 -6 8 -2 8 8 0 9 -7 17 -17 17 -9 0
-12 -3 -7 -7z"/>
<path d="M2615 4500 c-4 -6 -10 -8 -15 -5 -5 3 -11 1 -14 -4 -5 -8 15 -8 34
-1 3 1 9 2 13 1 5 -1 6 3 2 9 -8 13 -12 13 -20 0z"/>
<path d="M2660 4464 c0 -8 5 -12 10 -9 6 4 8 11 5 16 -9 14 -15 11 -15 -7z"/>
<path d="M2595 4460 c-3 -5 3 -10 14 -10 10 0 22 -6 24 -12 4 -10 6 -10 6 -1
1 17 -36 36 -44 23z"/>
<path d="M2696 4454 c-5 -14 -4 -15 9 -4 17 14 19 20 6 20 -5 0 -12 -7 -15
-16z"/>
<path d="M2746 4443 c-6 -14 -5 -15 5 -6 7 7 10 15 7 18 -3 3 -9 -2 -12 -12z"/>
<path d="M2698 4423 c-9 -10 -15 -28 -14 -40 3 -28 11 -38 13 -15 2 30 8 47
18 54 5 4 7 9 4 13 -3 3 -13 -3 -21 -12z"/>
<path d="M2588 4423 c6 -2 9 -10 6 -15 -4 -7 -2 -8 5 -4 13 9 5 26 -12 25 -9
0 -8 -2 1 -6z"/>
<path d="M2815 4409 c-4 -11 -4 -23 -1 -26 3 -4 6 1 6 10 0 10 7 17 15 17 13
0 14 -4 5 -20 -8 -16 -8 -20 2 -18 32 7 31 31 -2 48 -15 8 -20 6 -25 -11z"/>
<path d="M2725 4410 c-3 -5 -1 -10 4 -10 6 0 11 5 11 10 0 6 -2 10 -4 10 -3 0
-8 -4 -11 -10z"/>
<path d="M2785 4400 c-3 -5 -1 -10 4 -10 6 0 11 5 11 10 0 6 -2 10 -4 10 -3 0
-8 -4 -11 -10z"/>
<path d="M2760 4381 c0 -6 4 -13 10 -16 6 -3 7 1 4 9 -7 18 -14 21 -14 7z"/>
<path d="M2585 4360 c-4 -6 -1 -9 7 -8 7 2 12 -3 10 -10 -2 -9 2 -11 10 -5 18
11 32 10 41 -2 5 -6 7 -4 4 5 -2 8 -12 15 -23 15 -10 0 -24 4 -31 8 -6 4 -15
3 -18 -3z"/>
<path d="M2719 4368 c-6 -21 -5 -38 1 -38 5 0 8 9 7 20 -1 17 -5 26 -8 18z"/>
<path d="M2790 4361 c0 -5 5 -13 10 -16 6 -3 10 -2 10 4 0 5 -4 13 -10 16 -5
3 -10 2 -10 -4z"/>
<path d="M2543 4330 c2 -11 6 -22 10 -26 3 -4 4 3 2 15 -3 14 0 21 8 18 7 -2
12 -9 12 -14 0 -6 3 -14 7 -18 9 -9 5 16 -5 33 -13 20 -37 14 -34 -8z"/>
<path d="M2677 4335 c3 -8 9 -12 14 -9 12 7 11 11 -5 17 -10 4 -13 1 -9 -8z"/>
<path d="M2818 4333 c-10 -2 -18 -8 -18 -13 0 -5 7 -6 17 -3 12 5 14 3 8 -8
-5 -8 2 -5 16 6 13 11 26 21 28 22 7 4 -32 1 -51 -4z"/>
<path d="M2633 4313 c0 -9 7 -11 21 -7 19 6 20 5 6 -12 -14 -17 -13 -18 1 -7
9 7 18 11 21 8 3 -3 11 3 19 12 13 16 12 17 -3 5 -9 -7 -19 -9 -22 -4 -10 16
-43 20 -43 5z"/>
<path d="M2349 4284 l-34 -35 22 -18 c12 -10 19 -22 15 -27 -4 -5 0 -3 10 4
11 9 18 9 21 2 3 -6 4 -5 3 2 -2 7 -8 14 -14 14 -7 1 -17 2 -23 3 -8 1 -8 6 1
16 7 8 9 15 6 15 -4 0 2 14 14 30 28 40 22 38 -21 -6z m1 -28 c0 -3 -4 -8 -10
-11 -5 -3 -10 -1 -10 4 0 6 5 11 10 11 6 0 10 -2 10 -4z"/>
<path d="M2520 4305 c0 -8 4 -15 10 -15 5 0 7 7 4 15 -4 8 -8 15 -10 15 -2 0
-4 -7 -4 -15z"/>
<path d="M2735 4293 c17 -25 17 -26 -1 -19 -14 5 -16 4 -8 -4 7 -7 20 -10 30
-8 17 3 17 4 0 20 -9 10 -14 22 -11 28 3 5 -1 10 -11 10 -15 0 -15 -2 1 -27z"/>
<path d="M2440 4294 c0 -8 -4 -12 -10 -9 -5 3 -10 1 -10 -4 0 -15 11 -13 33 3
15 12 16 14 2 20 -9 3 -15 0 -15 -10z"/>
<path d="M2396 4285 c4 -8 8 -15 10 -15 2 0 4 7 4 15 0 8 -4 15 -10 15 -5 0
-7 -7 -4 -15z"/>
<path d="M2849 4295 c-1 -3 -2 -8 -3 -12 -1 -5 -7 -17 -13 -29 -10 -17 -9 -21
3 -21 8 0 13 6 10 13 -2 6 -2 15 2 18 7 8 12 36 6 36 -2 0 -5 -2 -5 -5z"/>
<path d="M2550 4275 c0 -8 2 -15 4 -15 2 0 6 7 10 15 3 8 1 15 -4 15 -6 0 -10
-7 -10 -15z"/>
<path d="M2616 4274 c-17 -16 -21 -34 -8 -34 4 0 12 11 19 25 13 29 11 31 -11
9z"/>
<path d="M2800 4280 c0 -5 5 -10 11 -10 5 0 7 5 4 10 -3 6 -8 10 -11 10 -2 0
-4 -4 -4 -10z"/>
<path d="M2478 4258 c-17 -17 -20 -52 -5 -63 4 -3 5 -2 2 2 -3 3 0 12 6 20 9
10 8 13 0 13 -7 0 -10 4 -6 10 3 5 12 7 20 3 16 -6 19 5 7 23 -4 6 -13 4 -24
-8z"/>
<path d="M2685 4270 c3 -5 8 -10 11 -10 2 0 4 5 4 10 0 6 -5 10 -11 10 -5 0
-7 -4 -4 -10z"/>
<path d="M2399 4244 c-7 -8 -6 -14 1 -19 6 -3 8 -11 5 -16 -4 -5 0 -16 9 -24
9 -10 17 -11 21 -5 4 6 12 8 18 4 7 -3 3 1 -7 10 -10 8 -24 13 -30 10 -6 -3
-4 0 5 8 25 22 29 44 7 44 -10 0 -24 -6 -29 -12z m31 -8 c0 -3 -4 -8 -10 -11
-5 -3 -10 -1 -10 4 0 6 5 11 10 11 6 0 10 -2 10 -4z"/>
<path d="M2654 4249 c-3 -6 0 -17 8 -25 13 -13 16 -13 27 0 11 13 9 15 -9 11
-16 -3 -20 0 -16 10 6 18 0 20 -10 4z"/>
<path d="M2285 4220 c-10 -11 -15 -23 -12 -27 4 -3 7 0 7 8 0 11 2 12 9 1 6
-10 10 -7 13 12 6 31 6 31 -17 6z"/>
<path d="M2507 4234 c-3 -4 -2 -15 4 -25 7 -15 6 -17 -6 -13 -8 4 -15 1 -15
-6 0 -6 5 -8 10 -5 13 8 13 -8 -1 -22 -8 -8 -7 -13 2 -18 8 -5 10 -4 5 3 -5 8
0 12 13 12 12 0 21 -4 21 -8 0 -5 6 -9 14 -9 8 0 12 6 9 14 -3 7 -14 13 -24
13 -10 0 -19 5 -19 11 0 5 4 8 8 5 4 -2 8 9 7 25 0 27 -13 38 -28 23z"/>
<path d="M2562 4219 c-11 -17 -11 -24 -1 -33 9 -8 10 -8 4 3 -4 7 -2 17 5 21
7 4 11 13 9 19 -2 6 -10 2 -17 -10z"/>
<path d="M2600 4220 c0 -5 5 -10 11 -10 5 0 7 5 4 10 -3 6 -8 10 -11 10 -2 0
-4 -4 -4 -10z"/>
<path d="M2803 4224 c4 -4 2 -12 -3 -19 -6 -8 -6 -12 3 -12 6 0 21 -4 32 -7
14 -5 13 -3 -4 7 -16 10 -20 16 -11 19 10 3 8 7 -5 12 -11 4 -16 4 -12 0z"/>
<path d="M2630 4209 c0 -5 5 -7 10 -4 6 3 10 8 10 11 0 2 -4 4 -10 4 -5 0 -10
-5 -10 -11z"/>
<path d="M2705 4211 c-3 -5 -2 -12 3 -15 5 -3 9 1 9 9 0 17 -3 19 -12 6z"/>
<path d="M2587 4194 c-4 -4 -2 -13 4 -21 9 -9 8 -13 0 -13 -6 0 -11 -5 -11
-11 0 -6 5 -7 13 -2 6 4 20 6 30 5 12 -2 17 3 16 20 -1 17 -3 18 -6 6 -6 -24
-18 -23 -29 3 -5 11 -13 17 -17 13z"/>
<path d="M2354 4172 c5 -27 -32 -60 -47 -39 -6 9 -8 8 -5 -2 2 -8 14 -16 27
-18 12 -2 20 1 17 6 -3 5 1 14 9 21 14 12 16 10 19 -15 2 -13 21 -18 21 -5 0
5 9 16 20 25 20 16 20 16 -2 6 -29 -14 -40 -14 -25 1 16 16 15 25 -4 32 -14 5
-15 4 -5 -8 8 -10 9 -16 1 -21 -5 -3 -15 4 -20 17 l-11 23 5 -23z"/>
<path d="M2270 4175 c0 -2 6 -8 13 -14 10 -8 14 -7 14 2 0 8 -6 14 -14 14 -7
0 -13 -1 -13 -2z"/>
<path d="M2170 4105 c-36 -36 -59 -65 -53 -65 6 0 14 6 17 13 5 10 7 10 12 0
7 -16 31 -17 40 -1 4 7 3 8 -5 4 -6 -4 -14 0 -17 9 -7 18 24 58 38 49 4 -3 8
-2 7 3 -4 21 2 24 19 12 15 -13 16 -12 4 3 -11 14 -10 17 5 20 11 2 14 6 7 10
-6 4 -39 -22 -74 -57z"/>
<path d="M2661 4163 c-1 -18 13 -23 29 -11 12 8 12 9 -2 5 -9 -3 -19 -1 -22 6
-3 9 -5 9 -5 0z"/>
<path d="M2741 4163 c-1 -7 -8 -10 -16 -7 -8 4 -15 2 -15 -3 0 -12 46 -11 57
1 4 5 3 6 -4 3 -6 -4 -14 -1 -16 5 -4 10 -6 10 -6 1z"/>
<path d="M2838 4163 c7 -3 16 -2 19 1 4 3 -2 6 -13 5 -11 0 -14 -3 -6 -6z"/>
<path d="M2780 4134 c0 -21 17 -25 22 -6 3 11 0 19 -8 19 -8 0 -14 -6 -14 -13z"/>
<path d="M2276 4127 c3 -10 9 -15 12 -12 3 3 0 11 -7 18 -10 9 -11 8 -5 -6z"/>
<path d="M2630 4130 c0 -5 5 -10 11 -10 5 0 7 5 4 10 -3 6 -8 10 -11 10 -2 0
-4 -4 -4 -10z"/>
<path d="M2420 4126 c0 -2 7 -7 16 -10 8 -3 12 -2 9 4 -6 10 -25 14 -25 6z"/>
<path d="M2523 4115 c-17 -19 -16 -30 0 -16 8 6 16 9 19 6 2 -3 5 2 5 10 0 19
-8 19 -24 0z"/>
<path d="M2681 4122 c-1 -8 -6 -10 -13 -6 -7 4 -4 -2 6 -14 11 -12 16 -22 11
-22 -4 0 -2 -7 5 -15 12 -14 7 -20 -15 -15 -5 1 -4 -4 3 -12 11 -11 14 -10 22
2 8 12 10 13 10 1 0 -8 3 -12 6 -8 3 3 2 12 -2 19 -5 7 -9 18 -10 23 -4 22
-23 59 -23 47z"/>
<path d="M2710 4118 c0 -4 5 -10 10 -13 6 -3 10 -2 10 4 0 5 8 12 18 14 9 3 5
4 -10 4 -16 -1 -28 -5 -28 -9z"/>
<path d="M2823 4123 c-7 -2 -13 -10 -13 -16 0 -8 3 -8 11 0 6 6 18 9 27 6 10
-4 13 -2 8 5 -8 13 -13 14 -33 5z"/>
<path d="M2472 4100 c-17 -27 -15 -38 2 -14 15 19 15 19 15 -1 -1 -47 22 -88
35 -66 4 6 0 11 -11 11 -14 0 -15 2 -4 9 9 6 10 11 2 15 -6 4 -9 11 -7 14 2 4
-1 17 -8 29 -11 22 -12 22 -24 3z"/>
<path d="M2256 4097 c3 -10 9 -15 12 -12 3 3 0 11 -7 18 -10 9 -11 8 -5 -6z"/>
<path d="M2646 4092 c-3 -5 1 -9 9 -9 8 0 12 4 9 9 -3 4 -7 8 -9 8 -2 0 -6 -4
-9 -8z"/>
<path d="M2785 4090 c-9 -15 3 -29 24 -27 12 1 17 6 13 16 -4 10 -7 11 -10 3
-2 -7 -8 -12 -13 -12 -4 0 -6 7 -3 15 7 17 -1 20 -11 5z"/>
<path d="M2836 4088 c3 -5 10 -6 15 -3 13 9 11 12 -6 12 -8 0 -12 -4 -9 -9z"/>
<path d="M2307 4076 c-3 -8 0 -17 8 -20 9 -3 13 2 12 15 -2 22 -13 25 -20 5z"/>
<path d="M2403 4081 c3 -8 -15 -10 -31 -3 -7 2 -16 2 -19 -2 -4 -3 1 -6 10 -6
10 0 17 -7 17 -16 0 -14 3 -14 15 -4 18 15 20 -1 3 -18 -9 -9 -8 -12 6 -12 9
0 14 5 11 10 -3 6 -1 10 6 10 8 0 9 4 0 13 -7 9 -7 17 0 24 6 6 5 10 -5 10 -8
0 -14 -3 -13 -6z"/>
<path d="M2527 4076 c-4 -10 -3 -15 3 -11 6 3 10 -2 11 -12 0 -10 3 -13 5 -6
3 7 1 20 -4 29 -8 15 -9 15 -15 0z"/>
<path d="M2595 4080 c-3 -5 1 -10 10 -10 9 0 13 5 10 10 -3 6 -8 10 -10 10 -2
0 -7 -4 -10 -10z"/>
<path d="M2728 4083 c7 -3 16 -2 19 1 4 3 -2 6 -13 5 -11 0 -14 -3 -6 -6z"/>
<path d="M2214 4044 c-9 -27 -8 -34 2 -34 7 0 16 5 20 12 5 7 3 8 -6 3 -8 -5
-11 -3 -8 6 3 8 10 13 15 12 14 -3 12 25 -2 30 -6 3 -16 -10 -21 -29z"/>
<path d="M2745 4060 c-10 -11 -16 -22 -14 -24 2 -2 12 7 22 20 22 29 17 32 -8
4z"/>
<path d="M2458 4049 c-19 -11 -24 -29 -8 -29 5 0 14 9 20 20 12 23 12 23 -12
9z"/>
<path d="M2269 4033 c-8 -9 -8 -13 0 -13 6 0 11 5 11 12 0 8 6 6 17 -5 16 -15
18 -15 35 0 10 9 18 12 18 6 0 -5 7 -10 16 -10 15 0 14 2 -1 14 -16 11 -21 10
-37 -4 -16 -14 -22 -12 -20 8 1 11 -28 5 -39 -8z"/>
<path d="M2575 4030 c6 -10 4 -12 -8 -7 -9 3 -18 3 -21 -1 -2 -4 6 -9 20 -10
25 -2 32 12 12 24 -7 5 -8 3 -3 -6z"/>
<path d="M2612 4027 c-12 -15 -4 -31 18 -35 12 -2 11 1 -2 11 -13 10 -15 16
-6 25 7 7 9 12 6 12 -3 0 -10 -6 -16 -13z"/>
<path d="M2039 3972 c-55 -56 -69 -78 -47 -69 23 8 52 -25 36 -41 -9 -9 -9
-12 0 -12 7 0 12 5 12 11 0 5 6 7 13 3 6 -4 0 6 -15 23 -34 35 -35 46 -5 38
20 -5 20 -5 3 6 -14 9 -16 13 -5 20 7 4 18 5 24 1 20 -13 43 -11 49 3 5 15
-11 31 -21 21 -4 -3 -1 -6 6 -6 7 0 9 -5 6 -10 -10 -16 -35 8 -28 26 3 7 9 11
14 8 5 -3 9 2 9 10 0 9 -1 16 -2 16 -2 0 -24 -21 -49 -48z"/>
<path d="M2685 4011 c-3 -5 -2 -12 3 -15 5 -3 9 1 9 9 0 17 -3 19 -12 6z"/>
<path d="M2723 4013 c-7 -2 -13 -9 -13 -15 0 -6 6 -5 15 2 27 22 28 2 2 -24
-15 -14 -23 -26 -18 -26 13 0 62 56 54 63 -7 8 -22 8 -40 0z"/>
<path d="M2135 4000 c-3 -6 1 -7 9 -4 18 7 21 14 7 14 -6 0 -13 -4 -16 -10z"/>
<path d="M2240 4000 c0 -6 -4 -9 -9 -6 -5 3 -15 -1 -22 -10 -10 -12 -10 -15 1
-12 7 2 15 -3 17 -9 3 -7 0 -13 -6 -13 -6 0 -11 -5 -11 -11 0 -8 5 -8 15 1 8
7 14 20 13 29 -2 9 3 15 10 14 14 -3 16 13 2 22 -5 3 -10 1 -10 -5z"/>
<path d="M2338 3986 c-4 -19 -1 -22 14 -18 10 2 21 8 24 13 3 5 -2 6 -11 3
-11 -5 -14 -2 -9 10 3 9 2 16 -4 16 -5 0 -12 -11 -14 -24z"/>
<path d="M2447 4003 c-9 -9 -9 -23 1 -22 27 4 34 -2 28 -27 -4 -16 -3 -23 3
-20 5 4 12 2 16 -4 4 -6 11 -8 16 -5 5 4 9 1 9 -5 0 -6 -7 -13 -15 -16 -8 -4
-15 -10 -15 -16 0 -5 6 -6 13 -1 6 4 21 6 32 5 15 -2 17 -1 6 7 -9 6 -11 16
-6 27 7 18 8 18 16 -1 6 -15 8 -11 6 18 0 21 -5 41 -11 44 -5 4 -7 -3 -4 -15
7 -24 -17 -51 -25 -30 -4 11 -6 10 -6 0 -1 -7 -6 -10 -11 -7 -8 5 -7 12 2 23
7 10 9 14 4 10 -4 -4 -18 4 -31 17 -12 14 -25 22 -28 18z"/>
<path d="M2491 4003 c-1 -17 16 -25 25 -12 4 7 3 9 -4 5 -5 -3 -13 0 -15 6 -4
9 -6 10 -6 1z"/>
<path d="M2179 3983 c-13 -16 -12 -17 4 -4 16 13 21 21 13 21 -2 0 -10 -8 -17
-17z"/>
<path d="M2571 3984 c0 -11 3 -14 6 -6 3 7 2 16 -1 19 -3 4 -6 -2 -5 -13z"/>
<path d="M2275 3980 c3 -5 8 -10 11 -10 2 0 4 5 4 10 0 6 -5 10 -11 10 -5 0
-7 -4 -4 -10z"/>
<path d="M2591 3974 c0 -11 3 -14 6 -6 3 7 2 16 -1 19 -3 4 -6 -2 -5 -13z"/>
<path d="M2419 3971 c11 -7 11 -9 0 -13 -8 -3 -2 -5 14 -5 15 0 30 3 33 8 3 5
-1 6 -9 3 -8 -3 -18 -1 -22 5 -3 6 -12 11 -18 11 -8 0 -7 -3 2 -9z"/>
<path d="M2157 3954 c4 -10 2 -15 -4 -11 -5 3 -10 0 -10 -7 0 -8 6 -12 14 -9
7 3 13 -2 13 -11 0 -9 5 -16 10 -16 6 0 10 9 10 21 0 11 -4 17 -10 14 -5 -3
-10 1 -10 9 0 8 -4 18 -10 21 -6 4 -7 -1 -3 -11z"/>
<path d="M2256 3955 c-4 -11 -4 -16 0 -13 9 10 37 -20 29 -31 -3 -5 0 -13 6
-17 8 -5 9 -3 4 6 -5 9 -4 11 3 6 7 -4 12 -15 12 -24 0 -13 2 -14 9 -4 4 7 6
25 3 40 -3 15 -7 21 -10 14 -3 -10 -7 -10 -18 -1 -8 6 -11 16 -7 22 3 5 1 7
-5 3 -5 -3 -12 -1 -14 6 -3 7 -7 4 -12 -7z"/>
<path d="M2642 3932 c-9 -25 -7 -28 9 -27 11 1 27 10 37 20 17 19 17 19 -5 1
-23 -19 -28 -14 -24 22 3 22 -7 13 -17 -16z"/>
<path d="M2105 3930 c-4 -6 -11 -7 -17 -4 -7 4 -8 2 -4 -5 6 -9 11 -9 22 0 14
11 18 19 10 19 -3 0 -8 -5 -11 -10z"/>
<path d="M2400 3929 c0 -5 5 -7 10 -4 6 3 10 8 10 11 0 2 -4 4 -10 4 -5 0 -10
-5 -10 -11z"/>
<path d="M2571 3928 c0 -9 -4 -25 -7 -35 -5 -17 -5 -17 6 0 6 10 9 25 7 35 -4
15 -5 15 -6 0z"/>
<path d="M2205 3910 c-3 -5 -1 -10 4 -10 6 0 11 5 11 10 0 6 -2 10 -4 10 -3 0
-8 -4 -11 -10z"/>
<path d="M2366 3911 c-3 -5 3 -11 13 -14 14 -3 18 -1 14 9 -6 16 -19 18 -27 5z"/>
<path d="M2105 3900 c-4 -6 -12 -7 -18 -3 -7 4 -6 -1 2 -10 10 -13 17 -14 26
-7 8 7 14 7 17 1 1 -5 10 -2 18 7 13 14 12 15 -3 9 -9 -3 -17 -2 -17 3 0 13
-17 13 -25 0z"/>
<path d="M2233 3887 c1 -7 -8 -11 -23 -10 -14 1 -18 0 -7 -3 9 -3 17 -13 17
-22 0 -15 -2 -15 -11 -2 -9 13 -10 13 -6 0 2 -8 10 -14 16 -12 13 2 14 -17 2
-37 -7 -10 -13 -11 -30 -2 -12 7 -19 16 -16 22 4 5 2 9 -4 9 -23 0 -18 -18 10
-34 16 -9 27 -21 25 -25 -3 -4 1 -8 9 -8 9 0 15 5 14 11 -3 23 1 36 11 36 6 0
9 -3 8 -7 0 -5 2 -16 7 -26 6 -14 10 -15 22 -6 10 9 17 9 25 1 15 -15 28 -15
28 -2 0 6 -7 10 -15 10 -9 0 -12 6 -9 18 5 14 4 15 -5 2 -9 -13 -11 -12 -11 5
-1 18 -2 18 -11 -3 -5 -13 -14 -20 -20 -16 -8 5 -8 9 1 14 9 6 7 11 -6 19 -15
8 -16 12 -5 20 8 5 9 11 3 15 -6 3 -13 0 -15 -6 -3 -8 -6 -7 -6 4 -1 9 6 21
15 26 15 8 15 10 0 15 -9 4 -15 1 -13 -6z"/>
<path d="M2456 3885 c-18 -14 -18 -14 1 -12 11 0 20 7 20 14 0 7 -1 13 -1 13
-1 0 -9 -7 -20 -15z"/>
<path d="M1934 3868 c-12 -14 -13 -18 -3 -10 9 6 18 10 21 7 2 -3 5 2 5 10 0
19 0 19 -23 -7z"/>
<path d="M1976 3875 c-3 -9 0 -15 10 -15 9 0 12 -5 8 -12 -4 -7 -3 -8 4 -4 9
5 9 13 2 27 -13 23 -16 24 -24 4z"/>
<path d="M2635 3880 c-4 -6 -11 -7 -17 -4 -6 4 -8 2 -5 -3 4 -6 0 -16 -8 -23
-8 -7 -15 -9 -15 -6 0 4 -14 -2 -30 -14 -17 -12 -27 -26 -24 -32 4 -6 0 -14
-7 -19 -8 -5 -9 -9 -3 -9 6 0 19 9 29 20 18 20 18 21 -1 14 -15 -5 -14 -2 6
14 13 11 27 19 31 17 3 -3 19 9 34 25 16 17 26 30 22 30 -3 0 -9 -5 -12 -10z"/>
<path d="M2150 3876 c0 -2 8 -10 18 -17 15 -13 16 -12 3 4 -13 16 -21 21 -21
13z"/>
<path d="M2331 3873 c-1 -17 16 -25 25 -12 4 7 3 9 -4 5 -5 -3 -13 0 -15 6 -4
9 -6 10 -6 1z"/>
<path d="M2411 3866 c-1 -12 -6 -16 -16 -13 -8 4 -17 2 -20 -4 -4 -5 -1 -8 7
-7 7 2 12 -2 11 -8 -1 -7 8 -9 23 -6 16 3 22 8 16 16 -5 6 -12 18 -15 26 -4
11 -6 11 -6 -4z"/>
<path d="M2289 3859 c13 -5 21 -15 18 -22 -3 -8 1 -14 8 -14 8 0 13 5 12 11
-3 16 -29 35 -47 35 -8 0 -4 -5 9 -10z"/>
<path d="M2496 3843 c7 -37 9 -37 22 -7 7 14 8 23 2 19 -5 -3 -10 -1 -10 4 0
6 -4 11 -9 11 -5 0 -7 -12 -5 -27z"/>
<path d="M2104 3848 c-3 -4 6 -7 20 -6 15 1 26 6 26 10 0 9 -40 6 -46 -4z"/>
<path d="M2459 3855 c-9 -14 9 -57 21 -50 5 3 10 12 10 18 0 8 -4 7 -9 -2 -7
-11 -10 -7 -13 15 -2 16 -6 25 -9 19z"/>
<path d="M1945 3840 c3 -5 12 -7 20 -3 21 7 19 13 -6 13 -11 0 -18 -4 -14 -10z"/>
<path d="M2009 3833 c-1 -4 -3 -17 -4 -28 -1 -11 -3 -26 -3 -33 -1 -7 -6 -10
-12 -7 -5 3 -10 2 -10 -3 0 -6 7 -12 15 -16 8 -3 14 -2 14 2 -4 22 3 33 16 29
8 -4 17 -1 21 5 4 6 3 8 -3 5 -6 -4 -16 0 -22 7 -9 11 -9 15 2 18 13 3 13 5 1
16 -8 7 -15 9 -15 5z"/>
<path d="M2072 3828 c2 -7 -4 -11 -12 -10 -8 2 -11 0 -7 -5 5 -4 12 -7 15 -6
4 1 13 -3 20 -9 9 -8 11 -7 6 6 -7 18 14 19 29 1 5 -6 7 -5 5 3 -2 8 -8 14
-13 14 -6 0 -18 4 -28 9 -12 7 -17 6 -15 -3z"/>
<path d="M1864 3798 c-16 -17 -24 -28 -17 -24 6 3 16 -1 21 -9 8 -15 10 -15
22 0 11 13 10 15 -6 9 -15 -4 -13 -1 6 16 14 12 19 18 11 14 -11 -5 -13 -3 -8
9 9 24 5 22 -29 -15z"/>
<path d="M1927 3824 c-3 -4 -1 -16 5 -28 7 -11 11 -24 10 -28 -4 -14 27 4 32
19 5 12 4 13 -7 5 -8 -7 -17 -9 -21 -5 -4 4 4 13 16 21 23 13 22 13 -5 7 -19
-4 -26 -2 -22 5 7 11 2 14 -8 4z"/>
<path d="M2190 3820 c0 -5 5 -10 11 -10 5 0 7 5 4 10 -3 6 -8 10 -11 10 -2 0
-4 -4 -4 -10z"/>
<path d="M2350 3816 c0 -9 4 -15 9 -12 12 8 21 -18 16 -44 -2 -13 1 -20 11
-20 8 0 14 5 14 10 0 6 -5 10 -11 10 -8 0 -7 5 1 15 9 11 15 13 20 5 5 -8 9
-8 13 2 3 9 -3 14 -15 15 -11 1 -29 10 -39 19 -18 16 -19 16 -19 0z"/>
<path d="M2446 3795 c4 -8 11 -15 16 -15 6 0 5 6 -2 15 -7 8 -14 15 -16 15 -2
0 -1 -7 2 -15z"/>
<path d="M2087 3774 c7 -3 9 -13 6 -22 -4 -14 -3 -14 5 -2 12 16 7 30 -11 29
-9 0 -9 -2 0 -5z"/>
<path d="M2164 3769 c-3 -6 -1 -16 4 -21 8 -8 11 -5 9 11 -1 24 -3 25 -13 10z"/>
<path d="M1905 3760 c-3 -5 -2 -10 4 -10 5 0 13 5 16 10 3 6 2 10 -4 10 -5 0
-13 -4 -16 -10z"/>
<path d="M2425 3759 c-4 -6 -5 -12 -2 -15 2 -3 7 2 10 11 7 17 1 20 -8 4z"/>
<path d="M1842 3740 c14 -22 24 -19 15 5 -4 8 -11 15 -17 15 -6 0 -6 -7 2 -20z"/>
<path d="M2270 3750 c-8 -5 -10 -10 -4 -10 12 0 12 -33 0 -39 -5 -2 -20 6 -33
19 -16 15 -21 17 -17 6 5 -12 2 -15 -10 -10 -9 3 -16 1 -16 -4 0 -6 9 -9 21
-7 14 3 32 -8 59 -38 30 -32 38 -37 34 -20 -4 12 -11 21 -16 20 -6 -1 -13 4
-16 12 -3 8 0 11 7 7 6 -4 11 -3 11 2 0 6 10 8 23 5 13 -4 19 -2 14 3 -5 5
-13 10 -18 10 -5 1 -14 2 -19 3 -6 0 -8 12 -6 26 3 14 4 25 3 25 -1 0 -9 -5
-17 -10z"/>
<path d="M2486 3735 c-19 -25 -44 -36 -30 -13 4 7 3 8 -4 4 -6 -4 -8 -14 -5
-22 5 -13 12 -10 36 15 17 17 29 33 26 35 -3 3 -13 -6 -23 -19z"/>
<path d="M1789 3723 l-24 -28 28 24 c25 23 32 31 24 31 -2 0 -14 -12 -28 -27z"/>
<path d="M1943 3733 c1 -15 5 -19 13 -13 6 6 14 7 18 3 4 -4 4 1 0 11 -5 12
-9 14 -14 6 -6 -9 -9 -9 -13 1 -3 8 -4 4 -4 -8z"/>
<path d="M2047 3736 c-11 -27 1 -33 21 -11 9 10 12 15 5 11 -6 -3 -13 -1 -15
6 -3 7 -7 5 -11 -6z"/>
<path d="M2113 3743 c4 -3 -4 -14 -19 -23 -14 -10 -26 -20 -27 -22 -1 -3 12
-17 28 -32 17 -15 25 -25 18 -22 -6 4 -15 1 -19 -5 -4 -8 -3 -9 4 -5 7 4 12 2
12 -4 0 -6 -10 -10 -22 -8 -13 2 -22 9 -20 16 1 8 -2 11 -8 7 -8 -5 -7 -11 1
-21 14 -17 6 -18 -24 -3 -20 9 -20 9 -4 -4 9 -8 17 -20 17 -26 0 -8 5 -7 15 3
8 8 24 13 35 11 11 -2 19 -1 17 3 -1 4 3 8 8 9 6 0 9 -3 8 -8 -2 -5 1 -9 7 -9
5 0 6 -7 3 -17 -5 -12 -3 -14 7 -8 8 5 11 4 7 -1 -3 -6 -2 -16 2 -23 6 -9 10
-5 13 13 3 15 0 27 -8 30 -8 3 -14 12 -14 20 0 8 -5 16 -11 18 -9 3 -15 21
-18 51 -1 4 -7 6 -13 5 -18 -4 -16 24 1 30 8 3 11 0 8 -5 -3 -5 2 -9 12 -10
10 -1 18 4 18 12 0 7 -6 11 -14 8 -9 -4 -11 0 -7 11 4 10 1 16 -7 16 -7 0 -9
-3 -6 -7z"/>
<path d="M2307 3743 c-10 -9 -9 -23 1 -23 5 0 9 7 9 15 0 17 -1 18 -10 8z"/>
<path d="M2331 3737 c2 -1 13 -9 24 -17 19 -14 19 -14 6 3 -7 9 -18 17 -24 17
-6 0 -8 -1 -6 -3z"/>
<path d="M1860 3702 c-14 -14 -18 -20 -9 -14 9 7 19 9 22 5 4 -3 7 -1 7 5 0 6
8 9 18 6 10 -4 13 -2 7 3 -5 4 -12 11 -15 14 -3 4 -16 -5 -30 -19z"/>
<path d="M2385 3720 c6 -8 10 -18 10 -22 0 -3 4 -10 8 -15 5 -4 7 -1 5 7 -1 8
2 14 9 13 8 -2 10 4 6 14 -4 11 -8 13 -11 5 -3 -10 -7 -10 -20 0 -13 11 -14
11 -7 -2z"/>
<path d="M1960 3705 c0 -7 30 -13 34 -7 3 4 -4 9 -15 9 -10 1 -19 0 -19 -2z"/>
<path d="M1810 3690 c0 -5 5 -10 11 -10 5 0 7 5 4 10 -3 6 -8 10 -11 10 -2 0
-4 -4 -4 -10z"/>
<path d="M1928 3680 c-10 -11 -13 -20 -8 -20 6 0 5 -6 -2 -14 -13 -14 -33 -12
-24 3 3 4 0 13 -5 21 -9 13 -9 13 -7 0 4 -24 -22 -62 -38 -56 -8 3 -12 2 -9
-3 8 -14 -9 -21 -25 -11 -11 7 -11 12 -2 23 10 11 9 21 -3 43 l-15 29 2 -27
c1 -15 6 -24 10 -22 14 9 9 -7 -7 -22 -16 -16 -21 -39 -7 -30 16 9 34 -12 36
-43 3 -41 -12 -40 -16 1 -2 24 -8 32 -25 33 -18 1 -21 -3 -18 -28 2 -17 12
-37 21 -46 11 -10 14 -11 9 -2 -5 9 -3 12 6 9 8 -3 14 -10 14 -15 0 -6 4 -15
9 -20 5 -5 6 -3 2 5 -4 6 -2 12 4 12 6 0 9 4 6 9 -3 5 3 11 13 14 17 4 18 10
11 41 -6 26 -4 38 6 47 11 9 14 8 14 -2 0 -12 2 -12 9 0 11 17 32 5 25 -14 -4
-8 -10 -13 -14 -10 -5 3 -11 1 -14 -4 -13 -21 26 -3 41 19 9 13 11 20 5 16
-20 -12 -22 11 -2 29 11 10 17 21 15 25 -3 5 5 6 17 2 14 -3 19 -2 14 7 -4 6
-11 9 -16 6 -4 -3 -10 0 -12 5 -2 6 -11 1 -20 -10z m-76 -120 c3 -18 0 -30 -6
-30 -6 0 -12 14 -12 30 -1 17 2 30 6 30 4 0 10 -13 12 -30z m-57 -12 c-4 -33
-4 -34 -14 -19 -10 15 -4 41 9 41 4 0 6 -10 5 -22z"/>
<path d="M2194 3666 c-12 -12 -20 -29 -18 -38 1 -10 -3 -18 -9 -18 -7 0 -6 -4
3 -10 20 -13 36 16 20 36 -15 17 1 19 18 2 7 -7 8 -17 1 -30 -7 -12 -6 -18 1
-18 6 0 9 -4 5 -10 -3 -5 -12 -7 -20 -3 -17 6 -22 -32 -5 -42 14 -9 12 -21 -5
-38 -19 -20 -55 -10 -55 14 0 11 -4 19 -8 19 -5 0 -9 -14 -9 -30 0 -20 3 -26
9 -18 6 10 8 10 8 1 0 -20 -4 -28 -13 -25 -5 1 -6 -2 -2 -8 9 -15 37 8 28 24
-4 7 -2 7 7 -1 10 -9 16 -8 27 3 8 8 19 12 24 8 5 -3 9 -2 8 3 -3 20 2 34 11
28 6 -4 8 -11 5 -16 -4 -5 -1 -9 6 -9 7 0 2 -11 -11 -25 -13 -14 -30 -25 -37
-25 -8 0 -11 -5 -7 -11 10 -16 67 44 70 75 1 14 0 25 -4 25 -25 -4 -42 2 -36
13 4 7 3 8 -4 4 -7 -4 -12 -1 -12 8 0 10 6 13 15 10 8 -4 15 -1 15 6 0 6 5 8
11 5 6 -4 8 -14 5 -24 -4 -9 2 -5 12 8 13 16 22 20 26 12 4 -6 12 -11 19 -11
6 0 2 7 -11 15 -12 9 -29 15 -39 13 -10 -2 -19 4 -21 16 -2 11 0 16 7 12 19
-12 12 6 -11 25 -16 15 -18 19 -5 19 8 0 17 -6 20 -12 2 -7 7 -11 10 -8 3 3
-2 15 -11 26 l-17 20 -21 -20z"/>
<path d="M1724 3658 l-19 -21 28 18 c28 18 33 25 19 25 -5 0 -17 -10 -28 -22z"/>
<path d="M2417 3671 c-10 -4 -18 -11 -18 -16 0 -6 -7 -9 -14 -7 -14 3 -33 -23
-33 -43 1 -5 -9 -15 -22 -21 -12 -7 -18 -14 -13 -17 5 -4 36 21 68 53 33 33
57 60 55 59 -3 0 -13 -4 -23 -8z"/>
<path d="M1846 3656 c5 -13 4 -17 -4 -12 -7 4 -12 2 -12 -3 0 -14 17 -14 26 0
3 6 1 16 -5 22 -9 9 -10 7 -5 -7z"/>
<path d="M1955 3650 c-4 -6 -2 -17 5 -25 9 -11 7 -16 -10 -25 -16 -9 -19 -15
-11 -23 15 -15 14 -30 -1 -21 -10 6 -10 5 -1 -7 9 -11 9 -19 2 -26 -7 -7 -4
-14 7 -24 12 -9 15 -10 10 -1 -4 7 -2 12 6 12 9 0 9 3 -2 10 -13 9 -13 10 0
10 13 0 13 1 0 10 -15 9 -13 11 13 14 6 0 13 12 14 26 2 23 2 24 -5 3 -5 -17
-11 -20 -22 -13 -12 7 -12 12 4 28 12 14 14 22 6 27 -6 4 -9 13 -6 21 6 16 0
19 -9 4z"/>
<path d="M2265 3630 c1 -11 5 -23 10 -27 4 -5 5 -2 0 6 -6 10 -2 12 16 6 13
-4 22 -6 19 -4 -3 2 -14 12 -26 22 -20 16 -21 16 -19 -3z"/>
<path d="M2325 3640 c3 -5 8 -10 11 -10 2 0 4 5 4 10 0 6 -5 10 -11 10 -5 0
-7 -4 -4 -10z"/>
<path d="M1732 3635 c10 -10 49 -14 43 -4 -4 5 -16 9 -27 9 -12 0 -19 -2 -16
-5z"/>
<path d="M1732 3605 c2 -11 -2 -19 -8 -18 -6 1 -9 -10 -6 -27 2 -16 8 -28 12
-27 10 2 11 -11 3 -40 -3 -13 -10 -23 -16 -23 -8 0 -7 -4 1 -12 7 -7 8 -17 2
-28 -7 -13 -5 -22 7 -31 15 -13 16 -11 10 13 -4 15 -3 30 3 33 6 3 7 18 4 33
-4 20 -3 23 5 12 5 -8 13 -11 18 -7 4 5 2 12 -5 16 -7 4 -12 12 -11 17 4 23
-2 45 -11 39 -5 -3 -10 1 -10 10 0 9 5 13 10 10 13 -8 13 16 -1 35 -8 12 -9
11 -7 -5z"/>
<path d="M2002 3606 c14 -10 15 -15 5 -26 -10 -12 -9 -12 6 -1 13 11 15 17 6
27 -6 8 -17 14 -23 14 -6 0 -3 -6 6 -14z"/>
<path d="M3522 3085 l-523 -520 3 -396 3 -396 523 516 523 516 -3 400 -3 400
-523 -520z"/>
<path d="M2072 3564 c-1 -14 2 -23 7 -20 5 4 8 13 7 21 -4 25 -12 25 -14 -1z"/>
<path d="M2100 3560 c0 -6 5 -8 10 -5 6 3 10 2 10 -2 0 -5 10 -14 23 -22 19
-13 21 -12 10 1 -7 8 -10 18 -6 21 3 4 1 7 -5 7 -5 0 -17 3 -26 6 -9 3 -16 1
-16 -6z"/>
<path d="M2049 3553 c-1 -5 -1 -12 0 -17 1 -5 -4 -13 -11 -17 -9 -6 -6 -9 10
-9 19 0 21 3 13 19 -6 10 -7 21 -4 25 3 3 3 6 0 6 -4 0 -8 -3 -8 -7z"/>
<path d="M2286 3535 c-11 -8 -15 -15 -9 -15 6 0 16 7 23 15 16 19 11 19 -14 0z"/>
<path d="M1876 3521 c-3 -5 2 -15 11 -22 12 -10 14 -10 9 -1 -4 7 -1 12 8 12
9 0 16 5 16 10 0 12 -37 13 -44 1z"/>
<path d="M2075 3521 c3 -6 -3 -14 -12 -20 -10 -6 -12 -11 -5 -11 6 0 12 -5 12
-11 0 -5 -6 -7 -12 -3 -7 4 -10 3 -5 -1 15 -17 47 -15 47 3 0 13 -2 14 -9 4
-7 -11 -9 -11 -14 2 -4 10 -1 16 7 16 7 0 13 7 13 15 0 8 -7 15 -14 15 -8 0
-12 -4 -8 -9z"/>
<path d="M2010 3505 c0 -8 4 -15 10 -15 5 0 7 7 4 15 -4 8 -8 15 -10 15 -2 0
-4 -7 -4 -15z"/>
<path d="M1976 3487 c3 -8 11 -14 18 -14 8 0 12 6 9 14 -3 7 -11 13 -19 13 -7
0 -11 -6 -8 -13z"/>
<path d="M1784 3476 c-3 -9 -10 -13 -15 -10 -5 3 -9 0 -9 -6 0 -8 7 -9 18 -5
29 11 37 10 34 -4 -3 -12 0 -12 12 -1 13 10 16 10 17 -1 1 -8 5 -3 10 11 7 21
8 18 6 -16 -2 -28 1 -40 9 -37 7 2 9 14 6 25 -4 18 -2 20 29 13 19 -4 31 -4
26 1 -4 4 -17 9 -29 11 -11 2 -26 10 -33 19 -10 14 -12 14 -24 0 -13 -15 -15
-15 -32 0 -17 15 -19 15 -25 0z"/>
<path d="M1921 3481 c-9 -6 -10 -10 -2 -12 7 -3 14 -13 15 -24 2 -11 8 -19 14
-18 5 1 16 -4 22 -12 12 -15 4 -19 -37 -18 -9 1 -8 -8 4 -30 11 -22 12 -32 4
-35 -14 -5 -15 -32 0 -32 5 0 7 5 4 10 -3 6 -2 10 3 10 5 0 12 9 15 21 3 12
10 18 16 14 6 -3 11 -1 11 5 0 7 -6 10 -13 7 -8 -3 -20 -1 -28 4 -10 6 -11 9
-1 10 6 1 16 2 21 3 23 3 21 18 -7 52 -17 21 -29 41 -26 46 7 10 3 10 -15 -1z"/>
<path d="M1970 3451 c0 -4 8 -8 18 -8 33 0 42 -3 42 -13 0 -5 -7 -10 -15 -10
-8 0 -15 -4 -15 -10 0 -5 6 -9 13 -7 6 1 11 -6 11 -15 -1 -10 2 -15 8 -12 5 3
6 14 3 25 -4 12 -2 19 5 17 7 -2 14 3 16 10 1 7 0 8 -3 2 -3 -7 -9 -5 -17 5
-12 17 -66 31 -66 16z"/>
<path d="M2076 3441 c-12 -19 13 -42 34 -31 11 6 21 5 28 -2 8 -8 11 -5 9 10
-1 17 -4 19 -20 10 -14 -7 -22 -5 -31 8 -9 12 -15 14 -20 5z"/>
<path d="M1740 3431 c0 -5 5 -13 10 -16 6 -4 8 -10 5 -15 -3 -5 7 -5 22 -1 16
4 36 7 46 5 9 -1 15 2 11 7 -3 5 -16 9 -30 9 -14 0 -34 5 -45 10 -12 7 -19 7
-19 1z"/>
<path d="M1887 3429 c6 -6 10 -17 9 -23 -2 -6 -1 -8 1 -3 3 4 11 7 19 7 9 0
12 5 9 10 -4 6 -11 8 -16 5 -5 -4 -9 -1 -9 4 0 6 -5 11 -12 11 -9 0 -9 -3 -1
-11z"/>
<path d="M2157 3406 c-4 -9 -13 -13 -22 -10 -19 8 -20 -10 0 -26 8 -7 12 -16
9 -21 -3 -5 2 -6 10 -3 10 4 13 0 10 -13 -3 -11 3 -23 16 -31 24 -15 27 -4 3
14 -10 7 -15 16 -10 20 9 9 58 -36 51 -47 -3 -5 2 -9 10 -9 9 0 16 -5 16 -11
0 -5 -5 -7 -12 -3 -7 4 -8 3 -4 -4 4 -6 14 -8 22 -5 10 4 15 1 14 -8 -5 -33 1
-70 10 -64 5 3 21 -2 35 -11 24 -16 25 -16 18 2 -4 12 5 7 26 -14 21 -21 31
-38 27 -49 -5 -13 -4 -14 8 -4 10 8 16 9 21 1 3 -5 1 -10 -4 -10 -6 0 -11 -7
-11 -15 0 -8 5 -15 10 -15 6 0 10 -5 10 -11 0 -5 -6 -7 -12 -3 -10 6 -10 5 -1
-7 7 -9 14 -25 16 -37 4 -25 12 -35 33 -38 8 -1 13 3 11 9 -2 7 -13 11 -23 9
-18 -2 -18 -2 -1 12 12 9 14 16 8 21 -6 3 -11 0 -12 -7 0 -7 -4 -4 -8 7 -5 11
-6 24 -3 30 16 26 4 49 -55 107 -36 35 -63 59 -61 53 3 -10 -4 -15 -23 -15 -8
0 -7 5 1 16 12 13 2 26 -63 92 -60 60 -75 80 -65 90 6 6 9 14 6 17 -3 3 -8 -1
-11 -9z"/>
<path d="M2073 3380 c1 -11 7 -22 15 -25 7 -2 11 -1 7 4 -3 5 1 11 7 13 8 3 5
9 -9 16 -19 11 -22 10 -20 -8z"/>
<path d="M1809 3380 c-1 -5 -3 -14 -4 -20 -1 -5 -3 -13 -4 -17 0 -4 -8 2 -17
13 -8 10 -13 13 -9 7 5 -12 -6 -18 -27 -14 -5 0 -7 -5 -5 -11 1 -7 -4 -12 -12
-10 -12 3 -12 0 -1 -12 10 -13 10 -16 -1 -16 -10 0 -14 -13 -15 -42 0 -23 2
-36 4 -30 2 7 9 9 15 5 7 -4 8 0 4 11 -4 10 -3 15 3 11 5 -3 9 -23 7 -44 -1
-22 -5 -37 -10 -34 -4 2 -5 8 -2 13 3 4 -2 10 -10 14 -13 5 -15 -28 -15 -257
l0 -262 580 -580 580 -580 0 573 c0 502 -2 572 -15 572 -8 0 -15 -5 -15 -11 0
-5 3 -8 8 -5 4 2 7 -12 6 -31 -2 -37 -18 -55 -41 -46 -7 3 -13 0 -13 -6 0 -6
-7 -8 -16 -4 -15 5 -15 7 -1 15 9 5 14 15 11 23 -4 10 1 13 20 9 29 -5 32 3
12 31 -7 11 -13 25 -12 30 0 6 -9 11 -22 13 -14 2 -20 8 -15 15 4 7 -2 5 -13
-3 -10 -8 -21 -16 -24 -18 -3 -2 2 -3 10 -2 29 4 50 0 50 -11 0 -5 -5 -7 -10
-4 -16 10 -41 -20 -27 -34 6 -6 7 -11 1 -11 -5 0 -15 5 -22 12 -17 17 -42 19
-35 2 3 -8 12 -13 21 -12 8 2 17 -3 19 -10 3 -6 -1 -10 -9 -9 -7 2 -10 2 -7 0
8 -5 -13 -53 -23 -53 -4 0 -5 8 -1 18 5 14 3 13 -10 -3 -8 -11 -19 -16 -24
-12 -4 5 3 17 16 28 13 11 21 22 17 26 -3 4 -11 2 -17 -4 -8 -8 -20 -8 -36 -2
-15 5 -22 5 -18 0 6 -11 -33 -51 -50 -51 -7 0 -12 7 -12 15 0 11 6 13 20 9 12
-4 17 -2 13 4 -3 6 -2 13 4 17 6 4 8 10 5 15 -14 22 43 34 74 16 4 -3 7 6 5
19 -1 16 2 23 8 19 6 -4 8 -2 4 4 -3 6 -2 13 4 17 5 3 10 -1 10 -9 0 -9 7 -16
16 -16 14 0 14 1 0 16 -21 21 -20 35 2 29 9 -3 2 2 -17 11 -24 11 -31 18 -22
24 9 5 10 10 3 14 -6 4 -9 13 -6 21 4 8 11 12 17 8 6 -3 7 -1 3 5 -11 19 -24
14 -32 -10 -4 -13 -9 -25 -13 -28 -3 -3 -11 -14 -18 -25 -6 -11 -16 -19 -23
-17 -6 1 -9 -2 -6 -7 4 -5 2 -12 -4 -16 -5 -3 -7 -17 -4 -31 3 -13 2 -24 -3
-24 -5 0 -9 10 -10 21 -1 12 -6 26 -12 32 -10 10 -9 -52 2 -70 4 -7 3 -14 -3
-18 -5 -3 -10 -3 -10 0 0 4 -7 -1 -16 -9 -8 -9 -21 -16 -27 -16 -7 0 -1 9 13
20 23 19 24 21 8 31 -10 5 -18 15 -18 22 0 8 3 8 9 -2 6 -9 11 -10 15 -2 4 6
1 14 -8 17 -20 8 -27 31 -11 38 10 3 12 0 9 -12 -5 -15 -4 -15 6 1 6 9 8 22 4
29 -5 8 -2 9 9 5 10 -4 17 -1 17 6 0 8 4 7 10 -3 8 -12 9 -9 6 11 -2 15 4 35
16 50 11 13 17 18 13 12 -4 -9 2 -13 19 -13 14 0 26 5 26 11 0 6 -7 9 -14 6
-10 -4 -13 -1 -10 7 8 21 53 10 85 -21 33 -33 36 -43 12 -44 -15 0 -15 -2 2
-8 11 -5 26 -6 33 -4 7 3 12 -3 12 -13 0 -9 3 -14 7 -11 3 4 13 2 22 -5 9 -6
-40 45 -109 115 -69 70 -125 127 -126 127 -1 0 0 -9 3 -20 3 -11 10 -17 16
-13 6 3 7 1 3 -5 -4 -7 -15 -12 -24 -12 -15 0 -15 -2 -2 -10 9 -6 18 -6 24 0
6 6 15 10 21 10 5 0 2 -5 -7 -11 -10 -5 -15 -16 -12 -24 4 -10 0 -15 -12 -15
-14 0 -16 2 -6 9 11 7 11 9 -2 14 -10 4 -16 1 -16 -9 0 -8 -5 -12 -11 -8 -8 4
-8 0 0 -15 12 -21 7 -41 -9 -41 -4 0 -6 9 -3 20 3 11 0 20 -6 20 -6 0 -10 -3
-9 -7 4 -15 -13 -53 -23 -53 -6 0 -8 4 -4 9 3 5 1 12 -4 15 -16 10 -6 -20 12
-38 12 -13 17 -14 17 -4 0 10 2 10 9 -1 6 -9 11 -10 15 -2 4 6 12 8 18 5 7 -5
2 -11 -13 -16 -13 -5 -26 -9 -28 -8 -2 1 -7 -3 -10 -9 -4 -6 -18 -1 -36 15
-28 23 -28 24 -5 14 l25 -11 -23 20 c-15 13 -19 22 -11 26 6 4 9 15 6 25 -3
11 1 21 9 24 8 3 14 11 14 18 0 9 -3 8 -10 -2 -9 -13 -10 -13 -10 0 0 13 -1
13 -10 0 -5 -8 -10 -11 -10 -5 0 5 -6 3 -12 -4 -11 -10 -9 -14 5 -22 14 -8 16
-14 6 -25 -6 -8 -16 -14 -21 -14 -6 0 -5 7 2 15 10 13 9 15 -9 15 -11 0 -21
-5 -21 -12 0 -15 -11 -4 -14 14 -4 29 -22 46 -46 44 -14 0 -25 4 -25 9 0 6 -9
21 -19 35 -10 14 -16 17 -13 8 3 -9 1 -18 -6 -21 -7 -2 -1 -14 16 -29 24 -22
25 -27 12 -38 -8 -7 -15 -20 -14 -29 0 -11 2 -12 6 -3 4 10 8 10 21 0 15 -11
15 -11 5 2 -8 10 -9 21 -3 30 6 8 10 11 10 5 0 -5 7 -2 14 8 13 16 15 16 24
-12 6 -16 8 -32 5 -35 -3 -3 3 -4 13 -2 11 2 27 -2 37 -9 15 -11 15 -14 3 -18
-8 -3 -17 -1 -19 6 -2 7 -8 8 -13 4 -5 -4 -2 -12 5 -16 9 -6 10 -11 2 -15 -6
-4 -11 -3 -11 1 0 5 -7 18 -16 29 -8 10 -12 13 -9 6 4 -8 -1 -20 -11 -28 -18
-15 -18 -15 3 -11 12 3 24 0 26 -7 3 -7 10 -6 23 5 22 19 46 15 38 -6 -4 -10
1 -13 19 -9 14 2 29 0 32 -6 4 -6 11 -7 17 -4 7 4 8 2 4 -4 -4 -7 -18 -9 -31
-6 -21 5 -24 3 -23 -25 1 -18 5 -34 10 -37 4 -3 4 -13 -2 -23 -5 -10 -6 -22
-2 -26 4 -5 1 -5 -5 -1 -13 7 -18 -6 -7 -17 13 -13 32 6 28 28 -6 31 18 50 33
26 10 -16 9 -18 -8 -14 -17 5 -18 3 -9 -21 6 -17 6 -25 0 -21 -6 4 -7 -1 -3
-11 4 -11 8 -13 11 -6 4 14 32 16 32 3 0 -5 -7 -14 -15 -21 -8 -7 -15 -17 -15
-22 0 -5 -9 -21 -20 -35 -11 -14 -20 -20 -20 -14 0 7 -5 9 -10 6 -6 -4 -10 -3
-9 2 4 21 -2 34 -13 27 -7 -4 -8 -3 -4 5 4 6 12 9 17 6 5 -4 9 -1 9 4 0 6 10
11 23 12 21 0 21 1 2 8 -11 5 -25 4 -32 -1 -9 -7 -13 -7 -13 0 0 6 5 14 10 17
12 7 4 25 -11 25 -6 0 -7 -5 -4 -11 4 -6 -2 -13 -14 -16 -11 -3 -19 -9 -16
-13 3 -4 -7 -7 -20 -7 -14 0 -28 3 -31 8 -3 5 2 6 10 3 15 -6 20 5 17 34 -1 6
5 12 14 12 9 0 13 5 10 10 -10 17 -25 11 -34 -12 -4 -12 -10 -17 -14 -11 -4 6
2 22 13 36 23 29 25 43 8 53 -7 5 -8 3 -3 -6 5 -8 3 -11 -6 -8 -16 5 -19 35
-7 61 7 14 4 17 -16 17 -26 0 -44 16 -25 22 20 7 -2 36 -27 34 -13 0 -24 -4
-24 -8 0 -5 -5 -8 -11 -8 -6 0 -9 7 -5 15 3 8 -3 19 -14 25 -25 13 -39 13 -20
-1 10 -7 11 -9 2 -7 -8 2 -13 8 -13 13 1 12 41 16 41 5 0 -5 8 -7 18 -6 22 4
28 34 8 42 -9 3 -14 9 -11 13 2 4 -2 8 -10 8 -8 0 -12 -4 -10 -8 9 -13 -6 -38
-20 -33 -15 6 -16 67 -1 81 4 4 6 2 4 -6 -1 -8 5 -16 15 -17 12 -1 12 0 2 3
-12 3 -13 9 -4 25 8 15 8 19 -1 13 -21 -13 -73 -17 -65 -6 3 6 2 11 -4 11 -5
0 -12 -6 -15 -12 -3 -7 -4 -1 -1 14 l5 27 -29 -17 c-16 -9 -27 -20 -25 -24 2
-3 0 -9 -6 -13 -7 -4 -7 -13 0 -26 12 -22 7 -34 -20 -49 -13 -7 -21 -6 -30 5
-11 13 -9 15 10 13 13 -2 25 3 27 12 4 13 3 13 -6 0 -8 -11 -11 -12 -11 -2 0
7 -5 10 -11 6 -7 -4 -10 -1 -7 7 3 8 11 13 17 11 6 -1 11 2 11 8 0 5 -5 10
-11 10 -5 0 -7 6 -3 13 4 7 3 9 -2 4 -5 -5 -9 -12 -10 -15 0 -4 -4 -15 -8 -24
-13 -28 -31 -10 -32 32 -1 22 3 37 7 34 5 -3 9 -13 9 -22 1 -12 5 -10 15 8 9
15 15 19 15 10 0 -9 6 -5 15 10 13 25 11 45 -3 23 -17 -27 -35 5 -41 70 -1 4
-10 7 -22 7 -11 0 -18 -4 -15 -9 4 -5 -6 -14 -21 -20 l-28 -11 30 6 c16 3 33
11 37 17 4 7 6 2 5 -11 -1 -17 -6 -21 -20 -16 -11 3 -17 2 -14 -3 3 -5 -4 -9
-16 -8 -12 1 -32 -1 -44 -6 -15 -6 -26 -2 -39 12 -10 11 -12 19 -6 19 7 0 12
9 12 19 0 23 16 36 25 21 3 -5 1 -10 -4 -10 -6 0 -11 -7 -11 -15 0 -8 5 -15
10 -15 6 0 10 4 10 9 0 5 10 7 21 4 18 -5 20 -3 14 17 -6 19 -4 22 9 17 9 -4
16 -3 16 2 0 5 -11 11 -24 13 -22 4 -23 3 -15 -19 13 -34 3 -28 -27 17 -15 22
-30 38 -34 35 -4 -3 -11 2 -14 11 -8 22 -8 26 4 19 6 -3 10 -1 10 5 0 7 -6 10
-12 7 -7 -2 -13 -16 -12 -30 1 -21 -3 -27 -20 -27 -17 0 -18 2 -6 10 11 7 11
10 2 10 -8 0 -10 5 -5 13 13 21 12 36 -3 30 -8 -3 -13 -12 -12 -21 2 -8 -3
-17 -10 -20 -8 -2 -12 2 -10 11 2 9 -1 15 -7 15 -5 -1 -9 -10 -7 -21 2 -12 -1
-17 -7 -13 -6 4 -11 14 -11 22 0 9 -5 12 -12 8 -8 -4 -10 -3 -5 2 5 5 13 9 18
9 5 0 8 5 7 10 -1 6 -9 9 -18 7 -13 -2 -13 -2 0 7 8 6 10 11 4 11 -6 0 -11 7
-11 15 0 8 4 15 9 15 4 0 8 -7 8 -15 0 -19 14 -19 30 0 11 13 10 14 -1 10 -10
-4 -15 1 -15 15 0 11 6 20 14 20 7 0 10 -4 7 -10 -3 -5 -1 -10 5 -10 7 0 9 7
6 16 -5 13 -2 15 16 9 13 -3 29 -7 36 -7 6 -1 12 -8 12 -15 0 -8 -4 -12 -9 -9
-12 8 -33 -19 -23 -29 4 -5 -1 -5 -12 -1 -20 7 -49 -11 -40 -25 6 -10 65 17
63 29 -3 19 2 22 16 8 18 -17 20 -30 3 -20 -7 4 -8 3 -4 -5 4 -6 11 -9 16 -6
4 3 10 0 12 -7 3 -8 8 -7 18 4 13 13 16 13 32 -6 12 -14 17 -16 16 -6 -2 8 3
14 9 13 7 -2 12 0 12 5 -3 18 2 33 9 28 9 -5 28 15 50 52 7 12 8 22 3 22 -5 0
-13 -9 -16 -21 -4 -13 -12 -18 -22 -15 -10 4 -14 2 -11 -6 2 -7 -8 -25 -22
-39 -26 -26 -27 -26 -39 -6 -11 17 -11 19 3 14 21 -8 20 -5 -6 17 -18 15 -20
16 -15 2 4 -9 1 -16 -6 -16 -8 0 -8 -3 2 -9 8 -5 9 -11 3 -15 -5 -3 -17 3 -26
13 -15 16 -15 19 -2 24 17 7 18 47 1 44 -5 -1 -9 4 -7 11 1 8 -2 11 -8 7 -6
-3 -8 -10 -5 -15 8 -13 -9 -20 -25 -9 -13 7 -13 9 0 9 13 0 13 1 0 10 -11 7
-11 10 -2 10 7 0 11 4 7 9 -3 5 5 17 17 25 13 9 17 16 9 16 -11 0 -10 5 4 20
17 19 16 19 -10 14 -20 -3 -25 -1 -19 8 5 10 4 10 -6 1 -9 -8 -19 -9 -32 -2
-12 6 -18 6 -19 -1z m69 -27 c-6 -7 -7 -13 -3 -13 4 0 2 -6 -4 -14 -7 -8 -23
-13 -37 -11 -41 4 -40 15 2 15 37 1 38 1 19 16 -12 9 -21 11 -23 4 -5 -14 -19
-12 -19 3 0 8 14 13 38 12 29 0 35 -3 27 -12z m-87 -25 c1 -7 1 -16 0 -20 0
-5 3 -7 8 -5 5 1 8 -2 8 -8 -1 -5 -7 -9 -13 -7 -6 1 -18 -5 -25 -15 -9 -11
-10 -14 -2 -9 20 11 53 16 53 7 0 -5 -9 -11 -21 -14 -12 -3 -18 -10 -14 -16 3
-6 0 -11 -8 -11 -20 0 -29 27 -17 50 8 16 8 18 -5 14 -8 -4 -15 -11 -15 -17 0
-6 -2 -8 -5 -5 -3 2 2 19 11 36 15 32 43 43 45 20z m54 -56 c-8 -8 -25 10 -19
20 4 6 9 5 15 -3 4 -7 6 -15 4 -17z m63 -37 c-3 -3 -9 2 -12 12 -6 14 -5 15 5
6 7 -7 10 -15 7 -18z m-70 -126 c-2 -6 7 -15 20 -20 12 -5 22 -5 22 0 0 5 9 7
20 4 11 -3 20 -10 20 -15 0 -6 -9 -8 -20 -5 -13 3 -20 0 -20 -9 0 -8 -6 -14
-14 -14 -17 0 -38 24 -29 33 3 4 -2 7 -12 7 -14 0 -15 3 -5 15 15 18 21 19 18
4z m222 -157 c0 -13 -3 -13 -19 2 -19 17 -19 17 -17 -8 2 -15 -1 -29 -6 -32
-4 -3 -5 -10 -2 -16 4 -7 2 -8 -4 -4 -6 4 -8 14 -5 23 5 12 2 15 -9 10 -10 -3
-25 4 -39 19 -12 13 -19 24 -16 24 4 0 9 0 12 0 3 0 5 -3 6 -7 1 -15 42 -24
53 -13 7 7 7 11 1 10 -21 -4 -35 0 -35 12 0 9 3 9 11 1 9 -9 15 -8 26 3 17 17
43 3 43 -24z m104 -37 c3 -8 11 -14 17 -13 13 3 20 -40 7 -48 -7 -5 -12 10 -9
28 0 4 -6 5 -14 2 -17 -7 -20 -24 -4 -24 6 0 3 -7 -5 -16 -20 -20 -20 -34 0
-34 10 0 14 6 11 14 -4 10 -1 13 9 9 18 -7 18 -19 -1 -27 -8 -3 -14 -16 -13
-30 1 -13 6 -23 10 -20 4 2 5 14 3 27 -4 21 -4 21 10 3 8 -11 15 -15 15 -8 0
6 13 10 30 9 32 -2 36 -21 4 -23 -34 -3 -64 -16 -58 -26 3 -5 14 -2 25 8 17
16 19 16 19 1 0 -10 -7 -17 -17 -17 -14 0 -14 -2 3 -22 10 -13 2 -8 -18 11
-20 19 -36 39 -35 45 1 6 -3 10 -9 9 -7 -1 -20 7 -30 18 -18 20 -18 21 7 43
24 21 25 23 10 46 -15 23 -15 23 7 18 12 -3 22 -2 22 3 0 5 -4 9 -10 9 -5 0
-10 5 -10 10 0 15 17 12 24 -5z m60 -40 c3 -8 1 -15 -4 -15 -6 0 -10 -13 -10
-29 0 -17 -5 -33 -11 -37 -8 -4 -9 0 -4 15 3 11 7 34 7 51 1 32 12 40 22 15z
m454 -33 c9 -14 11 -22 3 -22 -6 0 -11 7 -11 15 0 9 -7 15 -16 13 -10 -2 -19
2 -21 9 -7 20 30 7 45 -15z m-388 -6 c0 -3 -4 -8 -10 -11 -5 -3 -10 -1 -10 4
0 6 5 11 10 11 6 0 10 -2 10 -4z m367 -11 c-2 -5 -14 -9 -25 -9 -17 1 -22 -4
-22 -23 0 -18 -4 -24 -15 -20 -8 4 -17 2 -20 -3 -9 -15 -22 -12 -29 6 -3 8 -2
12 4 9 5 -3 19 -1 30 5 17 9 19 14 10 25 -9 11 -6 14 12 17 38 7 58 4 55 -7z
m-401 -95 c8 0 14 -4 14 -10 0 -5 5 -10 11 -10 6 0 8 9 4 20 -3 11 -3 20 2 21
4 0 16 2 26 4 17 3 17 2 2 -22 -9 -13 -14 -27 -11 -31 3 -3 6 -1 6 5 0 5 7 10
15 10 8 0 15 -7 15 -15 0 -9 -3 -12 -7 -9 -3 4 -12 2 -19 -4 -8 -7 -14 -7 -19
1 -8 13 -25 13 -25 -1 0 -5 6 -7 13 -3 7 4 9 3 4 -2 -5 -5 -12 -9 -15 -9 -4 0
-12 -4 -19 -8 -6 -4 -15 -3 -18 3 -4 6 -1 9 6 8 6 -2 12 7 14 20 1 13 -4 22
-12 22 -7 0 -12 10 -12 23 1 16 2 18 6 5 2 -10 11 -18 19 -18z m434 -15 c15 9
23 -16 10 -28 -10 -9 -11 -9 -5 3 8 13 7 13 -8 1 -10 -8 -15 -21 -12 -32 5
-15 2 -16 -21 -10 -37 10 -41 29 -10 41 14 5 26 13 25 17 -1 5 0 15 1 23 2 11
3 11 7 -3 2 -9 8 -15 13 -12z m-320 -15 c0 -5 -4 -10 -10 -10 -5 0 -10 -5 -10
-11 0 -5 4 -8 9 -5 12 8 9 -27 -3 -36 -5 -3 -21 1 -35 9 l-26 15 24 -21 c21
-19 21 -21 5 -21 -16 0 -17 -2 -4 -10 8 -5 11 -10 7 -10 -4 0 -2 -6 5 -14 7
-8 16 -12 21 -9 4 2 7 -4 7 -13 0 -14 -6 -12 -30 11 -17 16 -29 36 -28 44 2 9
-4 16 -14 16 -10 0 -17 5 -17 10 1 6 5 9 10 8 5 -2 9 3 9 11 0 10 7 12 22 8
16 -4 19 -2 13 8 -5 9 -4 11 4 6 6 -4 14 0 17 8 7 18 24 22 24 6z m164 -35 c3
-9 0 -15 -9 -15 -16 0 -27 14 -18 24 10 10 21 7 27 -9z m284 -25 c8 -13 7 -17
-4 -17 -8 0 -14 5 -14 11 0 6 -5 3 -11 -7 -5 -9 -8 -21 -4 -26 3 -5 -4 -12
-15 -16 -11 -3 -20 -14 -20 -23 0 -12 3 -13 8 -5 5 8 13 9 22 3 9 -6 20 -4 29
3 12 9 13 9 7 0 -4 -7 -3 -13 1 -13 5 0 15 6 22 13 11 10 12 8 6 -10 -3 -13
-3 -23 2 -23 6 0 8 -36 4 -82 -1 -12 -15 -9 -36 6 -19 13 -18 14 6 9 24 -4 25
-2 21 26 -2 17 -8 28 -13 26 -4 -3 -6 -12 -2 -20 3 -9 -1 -15 -11 -16 -9 -1
-23 -2 -33 -3 -9 0 -18 5 -20 12 -3 6 0 12 6 12 6 0 11 5 11 11 0 5 -4 7 -10
4 -5 -3 -16 -3 -22 2 -29 18 -40 12 -23 -13 14 -22 14 -26 1 -39 -18 -19 -23
-19 -23 0 0 8 7 15 14 15 8 0 12 4 8 10 -9 14 -47 -4 -64 -30 -15 -23 -15 -23
12 -18 18 3 27 1 27 -7 0 -18 -25 -26 -39 -12 -8 8 -11 8 -11 0 0 -6 6 -16 14
-22 11 -9 16 -9 22 0 5 9 10 7 15 -7 7 -17 8 -17 8 -1 1 9 5 17 10 17 5 0 16
3 24 6 9 3 16 -3 20 -15 3 -14 0 -21 -10 -21 -8 0 -12 4 -9 8 3 5 -1 9 -9 9
-11 0 -12 -4 -4 -14 8 -9 8 -13 0 -14 -20 -2 -26 -5 -48 -17 -26 -15 -30 -10
-8 11 13 14 11 17 -15 29 -18 7 -28 18 -25 26 3 7 0 10 -5 7 -6 -3 -10 -2 -10
4 0 5 6 12 13 14 6 3 2 6 -11 6 -14 1 -20 5 -17 12 4 6 14 8 22 5 9 -4 21 1
29 11 16 21 18 53 4 53 -5 0 -9 -3 -7 -7 1 -5 -1 -9 -5 -10 -17 -6 -26 -2 -32
13 -5 13 -3 14 6 6 9 -7 17 -6 26 4 11 12 10 14 -3 14 -17 0 -19 9 -6 29 5 7
14 10 20 7 6 -4 9 -12 5 -17 -3 -5 -1 -16 6 -24 9 -10 18 -11 41 -3 16 5 27
14 24 19 -3 4 5 20 17 34 13 15 24 32 24 38 3 22 4 24 18 24 7 0 18 -8 24 -17z
m-428 -20 c0 -15 -38 -32 -45 -20 -3 5 -4 14 -1 18 7 11 46 13 46 2z m205 -91
c-4 -5 -13 -9 -21 -9 -8 0 -14 -4 -14 -10 0 -5 -5 -10 -10 -10 -20 0 8 36 29
37 12 1 19 -2 16 -8z m9 -22 c-3 -9 4 -13 26 -11 35 2 36 1 13 -17 -11 -10
-14 -10 -9 -1 4 7 2 12 -7 12 -15 0 -27 -19 -34 -53 -2 -12 1 -16 8 -11 7 4
10 1 7 -6 -2 -8 -10 -16 -18 -18 -7 -3 -10 0 -6 7 4 6 3 11 -2 11 -4 0 -8 20
-8 45 -1 25 2 41 6 35 5 -8 9 -6 13 4 4 9 9 16 11 16 3 0 3 -6 0 -13z m-46
-32 c-2 -5 -9 -9 -15 -9 -7 1 -13 -4 -13 -11 0 -7 7 -12 16 -11 19 1 26 -25
12 -45 -8 -11 -8 -10 -4 4 4 12 2 17 -6 14 -7 -2 -12 -11 -12 -20 1 -9 -4 -13
-12 -10 -19 7 -18 19 2 27 16 6 11 26 -7 26 -6 0 -7 -5 -3 -12 4 -6 3 -8 -4
-4 -15 9 18 67 36 64 7 -2 12 -7 10 -13z m133 -18 c-13 -13 -26 -3 -16 12 3 6
11 8 17 5 6 -4 6 -10 -1 -17z m53 -28 c-2 -4 -12 -9 -23 -12 -13 -3 -18 -1
-14 9 2 7 11 10 19 7 10 -4 13 0 8 13 -5 15 -4 16 4 4 6 -8 9 -17 6 -21z m44
-5 c2 -46 12 -59 12 -16 0 33 14 43 23 18 3 -8 1 -17 -6 -20 -7 -2 -4 -5 6 -5
9 -1 17 6 17 14 0 8 4 15 10 15 14 0 7 -43 -9 -56 -12 -9 -11 -12 2 -17 15 -6
18 -62 4 -84 -4 -6 -1 -14 5 -16 8 -3 6 -6 -4 -6 -12 -1 -15 -6 -11 -18 5 -13
2 -15 -11 -10 -10 4 -23 7 -29 7 -7 0 1 12 17 26 15 15 24 29 19 33 -4 3 -10
15 -11 25 -3 18 -2 18 15 6 10 -8 8 -3 -5 11 l-23 24 -20 -24 c-10 -13 -19
-18 -19 -11 0 10 -3 10 -15 0 -13 -11 -18 -11 -28 0 -9 10 -9 11 1 6 8 -5 12
1 12 18 0 16 6 26 15 26 9 0 12 -6 9 -17 -5 -14 -4 -15 4 -4 5 7 14 11 20 7 5
-3 20 3 32 14 19 16 20 20 7 20 -10 0 -17 -4 -17 -10 0 -5 -6 -10 -14 -10 -16
0 -31 34 -21 50 3 5 1 10 -4 10 -6 0 -11 7 -11 15 0 8 6 15 13 15 9 0 14 -13
15 -36z m-121 -48 c7 -6 -12 -10 -36 -7 -7 2 -10 -2 -6 -9 4 -7 -4 -5 -17 4
-14 9 -28 13 -33 9 -4 -5 -5 -2 -1 5 8 13 80 12 93 -2z m40 -35 c0 -11 -4 -19
-7 -19 -3 0 -14 -1 -25 -2 -17 -2 -16 -3 5 -9 14 -4 20 -10 14 -14 -15 -9 -54
21 -54 41 0 14 2 14 9 3 8 -12 13 -12 33 2 13 9 24 16 25 16 1 1 1 -8 0 -18z
m-80 -15 c-2 -6 -11 -12 -21 -12 -13 -2 -14 -1 -1 3 13 4 14 8 4 19 -10 12 -9
13 5 8 9 -4 15 -12 13 -18z m184 -13 c10 -11 10 -14 1 -9 -8 5 -11 1 -9 -16 4
-26 -17 -53 -34 -42 -8 5 -6 10 5 16 17 9 13 28 -5 28 -6 0 -7 -4 -4 -10 8
-13 -6 -13 -25 0 -22 15 7 32 32 19 17 -9 23 -2 19 24 -2 12 6 8 20 -10z
m-146 -36 c12 -13 12 -16 1 -20 -8 -3 -16 3 -19 15 -3 11 -10 17 -16 14 -5 -4
-12 -2 -16 3 -9 15 33 4 50 -12z m45 -8 c-12 -8 -10 -10 8 -6 19 5 21 3 11 -9
-6 -8 -8 -14 -4 -14 5 0 5 -3 2 -7 -13 -12 -36 31 -25 45 6 7 13 10 17 7 3 -3
-1 -11 -9 -16z m49 -28 c7 -5 11 -15 9 -22 -3 -8 -1 -22 4 -32 5 -9 5 -17 1
-16 -20 3 -24 -2 -13 -16 12 -14 16 -13 35 5 15 14 25 18 30 11 3 -6 11 -9 16
-6 5 4 9 0 10 -7 0 -7 2 -21 4 -30 2 -10 -1 -18 -7 -18 -6 0 -8 7 -4 15 3 8 0
16 -7 17 -35 4 -43 4 -51 -1 -5 -2 -1 -8 10 -12 14 -5 15 -8 3 -8 -8 -1 -30
14 -48 33 -27 27 -31 39 -25 57 4 13 7 27 6 32 -3 9 10 9 27 -2z m45 -33 c-4
-6 2 -7 16 -3 15 5 20 4 16 -4 -4 -6 -2 -11 4 -11 6 0 8 -5 5 -10 -5 -8 -11
-7 -21 1 -8 6 -17 9 -21 6 -3 -4 -12 -2 -19 4 -16 13 -7 39 12 32 8 -3 11 -10
8 -15z m23 -90 c-3 -8 -6 -5 -6 6 -1 11 2 17 5 13 3 -3 4 -12 1 -19z m11 -24
c5 3 9 -1 9 -9 0 -16 -31 -4 -43 18 -6 8 -3 8 9 -1 9 -8 20 -11 25 -8z"/>
<path d="M2116 2811 c-3 -5 1 -14 9 -21 12 -10 15 -10 15 3 0 19 -16 31 -24
18z"/>
<path d="M2635 2670 c3 -5 11 -10 16 -10 6 0 7 5 4 10 -3 6 -11 10 -16 10 -6
0 -7 -4 -4 -10z"/>
<path d="M2780 2539 c0 -5 5 -9 11 -9 6 0 8 -9 4 -22 -5 -16 -4 -20 3 -13 18
18 18 48 0 50 -10 2 -18 -1 -18 -6z"/>
<path d="M2688 2503 c7 -3 16 -2 19 1 4 3 -2 6 -13 5 -11 0 -14 -3 -6 -6z"/>
<path d="M2730 2196 c0 -8 4 -17 9 -21 6 -3 9 4 8 15 -1 23 -17 28 -17 6z"/>
<path d="M1721 3354 c0 -11 3 -14 6 -6 3 7 2 16 -1 19 -3 4 -6 -2 -5 -13z"/>
<path d="M2008 3332 c3 -10 1 -13 -6 -8 -7 4 -12 2 -12 -3 0 -6 7 -11 16 -11
8 0 13 -4 9 -10 -3 -5 -13 -6 -22 -3 -15 6 -16 5 -3 -9 13 -14 18 -12 47 15
37 35 35 46 -6 45 -22 -1 -28 -5 -23 -16z m38 -7 c-11 -8 -22 -12 -25 -9 -6 6
19 24 34 24 6 -1 1 -7 -9 -15z"/>
<path d="M2113 3335 c0 -8 4 -12 8 -9 4 2 10 0 14 -6 3 -5 -1 -10 -11 -10 -13
0 -15 -7 -10 -37 6 -38 6 -38 -10 -13 -11 18 -14 19 -9 5 11 -33 10 -37 -2
-42 -7 -3 -13 3 -13 12 0 9 -5 13 -10 10 -6 -4 -8 -11 -5 -16 4 -5 2 -9 -3 -9
-15 0 -22 -29 -9 -36 7 -4 9 -4 5 1 -11 12 11 35 27 29 7 -3 16 0 20 5 3 6 11
9 16 5 5 -3 8 -1 7 4 -2 6 1 9 7 9 5 -1 9 -7 7 -13 -1 -7 4 -14 13 -18 20 -7
19 -21 -2 -41 -16 -16 -15 -17 3 -13 13 2 19 11 18 31 0 15 4 27 8 27 4 0 8 4
8 10 0 5 -7 7 -15 4 -9 -4 -15 0 -15 9 0 8 -7 18 -16 21 -9 4 -14 9 -11 13 4
3 2 12 -5 20 -8 10 -8 12 4 8 18 -7 20 24 2 42 -16 17 -21 16 -21 -2z"/>
<path d="M2066 3304 c-3 -7 2 -11 12 -10 9 2 17 7 19 13 5 14 -25 12 -31 -3z"/>
<path d="M1957 3295 c-4 -8 -3 -16 1 -19 4 -3 9 4 9 15 2 23 -3 25 -10 4z"/>
<path d="M1931 3274 c0 -11 3 -14 6 -6 3 7 2 16 -1 19 -3 4 -6 -2 -5 -13z"/>
<path d="M2150 3276 c0 -2 9 -6 20 -9 11 -3 20 -1 20 4 0 5 -9 9 -20 9 -11 0
-20 -2 -20 -4z"/>
<path d="M1978 3253 c7 -3 16 -2 19 1 4 3 -2 6 -13 5 -11 0 -14 -3 -6 -6z"/>
<path d="M2198 3243 c6 -2 9 -10 6 -15 -4 -7 -2 -8 5 -4 13 9 5 26 -12 25 -9
0 -8 -2 1 -6z"/>
<path d="M2105 3200 c-3 -6 1 -7 9 -4 18 7 21 14 7 14 -6 0 -13 -4 -16 -10z"/>
<path d="M2198 3193 c-9 -10 -13 -24 -10 -32 2 -7 -2 -17 -9 -22 -11 -7 -10
-9 4 -9 12 0 17 8 17 30 0 17 7 33 18 39 9 6 12 11 6 11 -6 0 -18 -8 -26 -17z"/>
<path d="M2130 3185 c-6 -8 -10 -19 -8 -26 2 -6 9 0 16 15 13 29 10 33 -8 11z"/>
<path d="M2230 3190 c-9 -6 -10 -10 -3 -10 6 0 15 5 18 10 8 12 4 12 -15 0z"/>
<path d="M2076 3175 c4 -8 8 -15 10 -15 2 0 4 7 4 15 0 8 -4 15 -10 15 -5 0
-7 -7 -4 -15z"/>
<path d="M2017 3168 c12 -16 13 -88 1 -88 -4 0 -8 -4 -8 -10 0 -5 10 -10 23
-10 13 0 17 3 11 8 -12 8 -10 41 3 51 13 10 13 45 0 53 -20 13 -41 10 -30 -4z"/>
<path d="M2250 3160 c7 -4 17 -14 22 -21 8 -11 9 -10 5 3 -3 9 -1 19 6 21 7 2
-1 4 -17 4 -17 0 -23 -3 -16 -7z"/>
<path d="M1923 3145 c-14 -15 -3 -27 27 -32 8 -1 16 -7 18 -12 4 -13 22 -14
22 -2 0 5 -9 13 -20 16 -11 3 -20 11 -20 16 0 6 6 7 13 3 8 -5 8 -2 -2 9 -16
20 -22 21 -38 2z m20 -10 c-3 -9 -8 -14 -10 -11 -3 3 -2 9 2 15 9 16 15 13 8
-4z"/>
<path d="M1995 3150 c3 -5 8 -10 11 -10 2 0 4 5 4 10 0 6 -5 10 -11 10 -5 0
-7 -4 -4 -10z"/>
<path d="M2088 3152 c-18 -4 -23 -14 -12 -25 4 -3 13 1 21 9 18 17 15 22 -9
16z"/>
<path d="M2220 3160 c-8 -17 -6 -50 2 -50 6 0 8 7 5 14 -4 10 -1 13 7 10 8 -3
17 0 22 7 5 9 2 10 -9 6 -9 -3 -18 -1 -21 6 -2 7 -5 10 -6 7z"/>
<path d="M2296 3133 c-6 -14 -5 -15 5 -6 7 7 10 15 7 18 -3 3 -9 -2 -12 -12z"/>
<path d="M2340 3142 c0 -12 19 -26 26 -19 2 2 -2 10 -11 17 -9 8 -15 8 -15 2z"/>
<path d="M1990 3123 c0 -5 5 -15 10 -23 8 -12 10 -11 10 8 0 12 -4 22 -10 22
-5 0 -10 -3 -10 -7z"/>
<path d="M2106 3105 c3 -19 0 -22 -20 -18 -22 5 -24 2 -22 -28 4 -49 5 -51 16
-44 6 4 7 13 1 23 -10 20 -4 42 12 42 8 0 8 -3 -1 -12 -13 -13 3 -52 19 -43 5
4 9 -4 9 -17 0 -13 6 -30 13 -37 10 -10 8 -11 -7 -5 -13 5 -17 4 -12 -4 4 -7
3 -12 -1 -12 -5 0 -9 -9 -10 -20 -1 -11 2 -20 8 -20 5 0 8 3 8 8 -3 18 2 33
10 28 4 -3 20 8 34 24 24 26 24 29 6 27 -10 -1 -19 -5 -19 -9 0 -4 -4 -8 -10
-8 -11 0 -14 33 -3 43 3 4 12 2 19 -4 7 -6 19 -9 26 -6 8 3 6 6 -5 6 -10 1
-16 5 -12 10 3 6 -4 8 -15 6 -39 -8 -61 17 -37 41 4 4 7 16 7 26 0 13 4 17 13
12 6 -4 8 -3 4 1 -17 19 -35 13 -31 -10z"/>
<path d="M2147 3106 c-5 -12 3 -14 36 -14 23 1 34 3 25 6 -10 2 -18 8 -18 13
0 15 -37 10 -43 -5z"/>
<path d="M2244 3108 c-5 -8 -2 -9 9 -5 11 4 17 1 17 -8 0 -8 -4 -15 -10 -15
-5 0 -10 -5 -10 -12 0 -8 6 -6 16 4 9 9 14 24 11 32 -7 19 -23 21 -33 4z"/>
<path d="M2329 3079 c-15 -15 -15 -17 0 -28 14 -10 13 -11 -7 -7 -26 5 -42
-18 -24 -36 7 -7 17 -3 32 12 18 18 19 24 8 38 -11 14 -11 15 5 9 10 -4 23 -7
29 -7 6 0 4 -8 -5 -18 -10 -10 -17 -26 -17 -36 0 -9 -5 -26 -10 -36 -8 -15 -7
-18 3 -14 22 8 30 -38 10 -53 -9 -7 -13 -13 -7 -14 5 0 18 -3 29 -5 45 -10 96
-13 91 -5 -10 15 21 20 40 7 22 -17 27 -46 8 -53 -8 -3 -14 -9 -14 -15 0 -5 4
-7 9 -4 5 4 12 0 14 -6 3 -7 6 -3 6 10 1 12 6 22 11 22 6 0 10 5 10 11 0 5 -5
7 -12 3 -7 -4 -8 -3 -4 4 4 6 13 9 20 6 21 -8 12 34 -13 57 -17 16 -19 24 -11
34 6 8 19 11 27 8 14 -6 14 -8 -2 -19 -16 -12 -16 -13 4 -11 30 2 26 18 -14
57 -19 19 -35 29 -35 22 0 -7 -7 -12 -15 -12 -12 0 -13 4 -6 19 8 14 5 23 -13
40 -17 16 -23 18 -23 6 0 -8 2 -13 5 -11 10 11 30 -19 20 -31 -6 -8 -6 -18 1
-30 6 -10 11 -14 11 -10 0 5 7 1 16 -8 19 -19 11 -33 -10 -16 -11 9 -15 8 -20
-4 -5 -14 -9 -14 -33 2 -19 13 -25 14 -18 4 6 -11 4 -13 -8 -8 -10 3 -17 4
-17 1 0 -2 11 -9 25 -14 14 -5 25 -15 25 -21 0 -8 -4 -8 -15 1 -8 7 -24 10
-35 7 -11 -3 -18 -1 -15 3 3 5 1 11 -5 15 -5 3 -7 18 -4 32 5 18 3 24 -4 19
-8 -4 -10 -2 -6 8 3 8 14 13 25 11 12 -2 19 2 19 11 0 8 -4 14 -10 14 -5 0
-10 -5 -10 -11 0 -5 -5 -7 -11 -3 -8 4 -8 9 0 17 15 15 14 40 -1 31 -6 -4 -16
-1 -22 7 -10 13 -13 13 -27 -2z m1 -55 c0 -2 -7 -4 -15 -4 -8 0 -15 4 -15 10
0 5 7 7 15 4 8 -4 15 -8 15 -10z m204 -45 c-3 -5 -10 -7 -15 -3 -5 3 -7 10 -3
15 3 5 10 7 15 3 5 -3 7 -10 3 -15z m-54 -39 c13 7 25 2 49 -19 29 -26 32 -41
7 -41 -6 0 -4 5 4 11 12 9 11 10 -7 6 -13 -3 -23 -1 -23 5 0 5 -6 6 -12 2 -9
-5 -9 -2 1 9 18 23 9 21 -19 -3 -27 -23 -48 -27 -30 -5 10 12 10 18 -1 33 -11
14 -11 15 1 5 8 -8 19 -9 30 -3z m-50 -40 c0 -11 -5 -20 -11 -20 -6 0 -8 7 -4
18 5 14 4 15 -6 5 -18 -18 -33 -16 -17 2 19 21 38 18 38 -5z"/>
<path d="M2125 3069 c-4 -6 -5 -12 -2 -15 2 -3 7 2 10 11 7 17 1 20 -8 4z"/>
<path d="M2183 3065 c0 -11 4 -12 14 -4 7 6 13 13 13 15 0 2 -6 4 -13 4 -8 0
-14 -7 -14 -15z"/>
<path d="M2215 3060 c-3 -5 -1 -10 4 -10 6 0 11 5 11 10 0 6 -2 10 -4 10 -3 0
-8 -4 -11 -10z"/>
<path d="M2245 3025 c3 -40 15 -75 26 -75 5 0 6 7 3 15 -8 20 5 19 28 -2 17
-15 18 -15 18 2 0 10 -3 16 -6 12 -9 -9 -33 18 -37 42 -2 11 -7 24 -12 28 -4
5 -5 2 -1 -4 4 -7 3 -13 -3 -13 -5 0 -11 6 -14 13 -3 6 -4 -1 -2 -18z m25 -27
c0 -12 -3 -18 -7 -14 -11 10 -12 36 -2 36 5 0 9 -10 9 -22z"/>
<path d="M2211 3027 c-8 -10 -7 -14 4 -14 8 0 15 6 15 14 0 7 -2 13 -4 13 -2
0 -9 -6 -15 -13z"/>
<path d="M1935 3010 c-3 -5 -2 -10 4 -10 5 0 13 5 16 10 3 6 2 10 -4 10 -5 0
-13 -4 -16 -10z"/>
<path d="M2085 3000 c-3 -5 1 -10 10 -10 9 0 13 5 10 10 -3 6 -8 10 -10 10 -2
0 -7 -4 -10 -10z"/>
<path d="M2222 2971 c2 -19 8 -36 14 -38 14 -5 11 26 -4 52 -11 18 -12 16 -10
-14z"/>
<path d="M2325 2990 c3 -5 8 -10 11 -10 2 0 4 5 4 10 0 6 -5 10 -11 10 -5 0
-7 -4 -4 -10z"/>
<path d="M2391 2984 c0 -11 3 -14 6 -6 3 7 2 16 -1 19 -3 4 -6 -2 -5 -13z"/>
<path d="M2190 2955 c0 -8 2 -15 4 -15 2 0 6 7 10 15 3 8 1 15 -4 15 -6 0 -10
-7 -10 -15z"/>
<path d="M2285 2929 c-4 -6 -5 -12 -2 -15 2 -3 7 2 10 11 7 17 1 20 -8 4z"/>
<path d="M2322 2928 c2 -6 10 -13 16 -14 7 -1 8 0 2 3 -5 2 -8 9 -4 14 3 5 0
9 -6 9 -7 0 -10 -5 -8 -12z"/>
<path d="M2575 2910 c3 -5 8 -10 11 -10 2 0 4 5 4 10 0 6 -5 10 -11 10 -5 0
-7 -4 -4 -10z"/>
<path d="M2423 2862 c-19 -3 -21 -6 -12 -23 5 -11 14 -17 20 -14 5 4 7 10 4
15 -3 4 1 10 7 13 20 7 6 13 -19 9z"/>
<path d="M2365 2798 c-11 -32 -11 -38 -2 -38 4 0 7 3 8 8 0 4 5 12 9 17 5 6 5
17 1 24 -6 9 -10 6 -16 -11z"/>
<path d="M2717 2750 c-3 -11 -2 -20 3 -20 12 0 21 28 11 35 -5 2 -11 -4 -14
-15z"/>
<path d="M2620 2756 c0 -2 7 -9 15 -16 12 -10 15 -10 15 4 0 9 -7 16 -15 16
-8 0 -15 -2 -15 -4z"/>
<path d="M2439 2714 c0 -10 -3 -13 -6 -7 -3 10 -10 10 -24 2 -16 -8 -18 -13
-8 -25 6 -7 12 -27 14 -42 2 -37 13 -54 28 -46 7 3 3 -3 -8 -13 -24 -23 -30
-44 -10 -37 8 4 15 12 15 19 0 7 7 15 15 19 8 3 12 12 9 21 -3 8 -1 15 5 15 6
0 8 7 5 15 -4 8 -10 12 -15 9 -5 -3 -7 -9 -4 -14 6 -9 -25 -23 -33 -15 -3 3
-1 5 4 5 5 0 9 15 9 33 0 24 4 32 18 31 21 -2 21 5 2 30 -15 20 -15 20 -16 0z"/>
<path d="M2443 2658 c-2 -17 0 -18 15 -7 9 8 18 14 20 15 1 1 -5 4 -16 6 -12
4 -18 -1 -19 -14z"/>
<path d="M2640 2624 c0 -2 9 -8 20 -14 15 -8 18 -8 14 3 -4 11 -34 21 -34 11z"/>
<path d="M2825 2600 c-16 -7 -17 -9 -3 -9 9 -1 20 4 23 9 7 11 7 11 -20 0z"/>
<path d="M2490 2550 c0 -5 5 -10 10 -10 6 0 10 5 10 10 0 6 -4 10 -10 10 -5 0
-10 -4 -10 -10z"/>
<path d="M2493 2502 c-7 -4 -9 -13 -5 -19 5 -8 11 -7 19 3 14 15 3 27 -14 16z"/>
<path d="M4066 1390 c-63 -19 -105 -91 -106 -177 l0 -53 -45 0 -45 0 0 -60 0
-60 45 0 45 0 0 -205 0 -205 70 0 70 0 0 205 0 205 60 0 60 0 0 60 0 60 -60 0
-60 0 0 43 c0 64 18 82 78 81 48 0 51 1 56 29 12 61 8 74 -25 81 -42 8 -107 6
-143 -4z"/>
<path d="M2103 1380 c-81 -33 -55 -140 34 -140 77 0 101 100 32 135 -32 17
-35 17 -66 5z"/>
<path d="M3673 1380 c-26 -11 -43 -40 -43 -72 0 -65 98 -94 139 -42 27 34 26
57 -1 88 -26 29 -63 39 -95 26z"/>
<path d="M2690 1243 l0 -136 -23 21 c-72 68 -218 51 -296 -33 -53 -58 -76
-133 -68 -231 11 -151 99 -244 232 -244 64 0 101 12 137 47 l26 25 7 -31 c6
-30 8 -31 66 -31 l59 0 0 375 0 375 -70 0 -70 0 0 -137z m-26 -216 c25 -17 26
-20 26 -123 0 -101 -1 -106 -26 -129 -52 -49 -134 -52 -178 -8 -71 71 -57 227
25 271 32 17 120 10 153 -11z"/>
<path d="M950 1355 c0 -6 96 -363 163 -607 l32 -118 81 0 80 0 39 135 c68 241
103 350 109 335 2 -8 26 -87 52 -175 25 -88 55 -190 66 -227 l20 -68 83 0 82
0 16 53 c9 28 25 86 36 127 28 106 141 522 146 538 4 10 -13 12 -72 10 l-76
-3 -67 -265 -67 -265 -26 83 c-14 46 -49 166 -79 268 l-53 184 -66 0 c-55 0
-68 -3 -72 -17 -2 -10 -21 -74 -42 -143 -20 -69 -50 -172 -66 -230 -17 -58
-33 -112 -36 -120 -4 -13 -35 99 -120 435 l-18 70 -72 3 c-40 2 -73 0 -73 -3z"/>
<path d="M3121 1165 c-117 -33 -184 -129 -185 -264 0 -120 45 -199 139 -242
77 -35 196 -20 252 33 l23 21 0 -49 c0 -87 -56 -144 -143 -144 -44 0 -135 28
-168 51 l-26 19 -18 -62 c-20 -70 -22 -67 74 -99 92 -31 225 -25 296 14 28 15
61 43 74 63 44 64 51 119 51 396 l0 258 -70 0 -70 0 0 -36 0 -37 -20 25 c-42
54 -127 75 -209 53z m138 -115 c19 -5 47 -22 63 -37 27 -26 28 -31 28 -119 l0
-92 -52 -26 c-62 -31 -89 -32 -145 -7 -53 25 -75 66 -74 138 0 67 24 112 71
135 40 20 61 22 109 8z"/>
<path d="M2062 898 l3 -263 68 -3 67 -3 0 266 0 265 -70 0 -70 0 2 -262z"/>
<path d="M3640 895 l0 -266 68 3 67 3 3 263 3 262 -71 0 -70 0 0 -265z"/>
<path d="M4273 1148 c132 -326 207 -516 207 -526 0 -26 -29 -68 -55 -80 -15
-7 -42 -10 -59 -6 l-33 6 -11 -58 c-7 -31 -10 -59 -8 -62 3 -2 33 -6 68 -9 52
-4 71 0 108 19 76 39 78 43 280 568 26 69 51 133 55 143 6 15 0 17 -67 17
l-73 0 -65 -190 c-36 -104 -68 -186 -71 -182 -4 4 -21 50 -39 102 -18 52 -46
134 -62 183 l-30 87 -75 0 c-56 0 -74 -3 -70 -12z"/>
</g>
</svg>
